<svg width="19" height="22" viewBox="0 0 19 22" fill="none" xmlns="http://www.w3.org/2000/svg">
<path d="M3.64551 8.10254V13.54C3.64551 13.915 3.52051 14.2275 3.27051 14.4775C3.02051 14.7275 2.70801 14.8525 2.33301 14.8525C1.95801 14.8525 1.62988 14.7275 1.34863 14.4775C1.06738 14.2275 0.926758 13.915 0.926758 13.54V8.10254C0.926758 7.75879 1.06738 7.46191 1.34863 7.21191C1.62988 6.96191 1.94238 6.83691 2.28613 6.83691C2.66113 6.83691 2.97363 6.96191 3.22363 7.21191C3.50488 7.46191 3.64551 7.75879 3.64551 8.10254ZM4.11426 15.4619C4.11426 15.8682 4.25488 16.2119 4.53613 16.4932C4.81738 16.7432 5.14551 16.8682 5.52051 16.8682H6.45801V19.7275C6.45801 20.29 6.67676 20.665 7.11426 20.8525C7.55176 21.0713 7.97363 21.0713 8.37988 20.8525C8.81738 20.6338 9.03613 20.2588 9.03613 19.7275V16.8682H10.8174V19.7275C10.8174 20.29 11.0205 20.665 11.4268 20.8525C11.8643 21.0713 12.3018 21.0713 12.7393 20.8525C13.1768 20.665 13.3955 20.29 13.3955 19.7275V16.8682H14.333C14.708 16.8682 15.0361 16.7432 15.3174 16.4932C15.5986 16.2119 15.7393 15.8682 15.7393 15.4619V7.07129H4.11426V15.4619ZM15.7393 6.60254H4.06738C4.06738 5.63379 4.33301 4.74316 4.86426 3.93066C5.42676 3.08691 6.16113 2.43066 7.06738 1.96191L6.17676 0.321289C6.11426 0.196289 6.12988 0.118164 6.22363 0.0869141C6.34863 0.0244141 6.42676 0.0400391 6.45801 0.133789L7.39551 1.77441C8.20801 1.43066 9.05176 1.25879 9.92676 1.25879C10.833 1.25879 11.6768 1.43066 12.458 1.77441L13.3955 0.133789C13.4268 0.0400391 13.4893 0.0244141 13.583 0.0869141C13.708 0.118164 13.7393 0.196289 13.6768 0.321289L12.7861 1.96191C13.6924 2.43066 14.4111 3.08691 14.9424 3.93066C15.4736 4.74316 15.7393 5.63379 15.7393 6.60254ZM7.77051 4.02441C7.77051 3.89941 7.72363 3.79004 7.62988 3.69629C7.53613 3.57129 7.41113 3.50879 7.25488 3.50879C7.12988 3.50879 7.02051 3.57129 6.92676 3.69629C6.83301 3.79004 6.78613 3.89941 6.78613 4.02441C6.78613 4.14941 6.83301 4.25879 6.92676 4.35254C7.02051 4.44629 7.12988 4.49316 7.25488 4.49316C7.41113 4.49316 7.53613 4.44629 7.62988 4.35254C7.72363 4.25879 7.77051 4.14941 7.77051 4.02441ZM13.0674 4.02441C13.0674 3.89941 13.0205 3.79004 12.9268 3.69629C12.833 3.57129 12.7236 3.50879 12.5986 3.50879C12.4736 3.50879 12.3486 3.57129 12.2236 3.69629C12.1299 3.79004 12.083 3.89941 12.083 4.02441C12.083 4.14941 12.1299 4.25879 12.2236 4.35254C12.3486 4.44629 12.4736 4.49316 12.5986 4.49316C12.7236 4.49316 12.833 4.44629 12.9268 4.35254C13.0205 4.25879 13.0674 4.14941 13.0674 4.02441ZM17.5205 6.83691C17.1768 6.83691 16.8643 6.96191 16.583 7.21191C16.333 7.46191 16.208 7.77441 16.208 8.14941V13.54C16.208 13.915 16.333 14.2275 16.583 14.4775C16.8643 14.7275 17.1768 14.8525 17.5205 14.8525C17.8955 14.8525 18.2236 14.7275 18.5049 14.4775C18.7861 14.2275 18.9268 13.915 18.9268 13.54V8.10254C18.9268 7.75879 18.7861 7.46191 18.5049 7.21191C18.2236 6.96191 17.8955 6.83691 17.5205 6.83691Z" fill="white"/>
</svg>
