<svg width="22" height="21" viewBox="0 0 22 21" fill="none" xmlns="http://www.w3.org/2000/svg">
<path d="M22 5.25V18.75C22 19.9922 21.0762 21 19.9375 21H2.0625C0.923828 21 0 19.9922 0 18.75V5.25C0 4.00781 0.923828 3 2.0625 3H5.84375L6.37227 1.45781C6.67305 0.58125 7.44219 0 8.30156 0H13.6941C14.5535 0 15.3227 0.58125 15.6234 1.45781L16.1562 3H19.9375C21.0762 3 22 4.00781 22 5.25ZM16.1562 12C16.1562 8.89688 13.8445 6.375 11 6.375C8.15547 6.375 5.84375 8.89688 5.84375 12C5.84375 15.1031 8.15547 17.625 11 17.625C13.8445 17.625 16.1562 15.1031 16.1562 12ZM14.7812 12C14.7812 14.2734 13.084 16.125 11 16.125C8.91602 16.125 7.21875 14.2734 7.21875 12C7.21875 9.72656 8.91602 7.875 11 7.875C13.084 7.875 14.7812 9.72656 14.7812 12Z" fill="white"/>
</svg>
