<svg width="624" height="181" viewBox="0 0 624 181" fill="none" xmlns="http://www.w3.org/2000/svg">
<path opacity="0.2" d="M199.412 113.576C73.6141 124.311 15.3727 79.6173 -7.57208e-07 64.2075L0 0L624 0L624 122.422C521.588 222.871 388.022 94.151 287.317 105.015C226.476 111.578 229.507 111.008 199.412 113.576Z" fill="url(#paint0_linear)"/>
<path fill-rule="evenodd" clip-rule="evenodd" d="M0 91.5791L20.8 88.5265C41.6 85.4739 83.2 79.3686 124.8 85.4739C166.4 91.5791 208 109.895 249.6 128.211C291.2 146.527 344 145.998 374.4 145.998C416 142.946 457.6 134.316 499.2 125.158C540.8 116 582.4 122.106 603.2 125.158L624 128.211V0H603.2C582.4 0 540.8 0 499.2 0C457.6 0 416 0 374.4 0C332.8 0 291.2 0 249.6 0C208 0 166.4 0 124.8 0C83.2 0 41.6 0 20.8 0H0V91.5791Z" fill="url(#paint1_linear)"/>
<path d="M424.921 160.491H200V160.604H424.921V160.491Z" fill="#EBEBEB"/>
<path d="M250.23 164.266H235.331V164.378H250.23V164.266Z" fill="#EBEBEB"/>
<path d="M273.549 167.509H259.978V167.621H273.549V167.509Z" fill="#EBEBEB"/>
<path d="M242.78 168.44H225.573V168.553H242.78V168.44Z" fill="#EBEBEB"/>
<path d="M402.384 168.197H395.231V168.31H402.384V168.197Z" fill="#EBEBEB"/>
<path d="M393.787 168.197H376.1V168.31H393.787V168.197Z" fill="#EBEBEB"/>
<path d="M326.105 164.207H312.461V164.319H326.105V164.207Z" fill="#EBEBEB"/>
<path d="M360.49 164.207H328.057V164.319H360.49V164.207Z" fill="#EBEBEB"/>
<path d="M306.613 140.428H219.753C219.072 140.427 218.42 140.156 217.939 139.675C217.458 139.193 217.188 138.54 217.188 137.86V15.759C217.194 15.0824 217.467 14.4356 217.947 13.9588C218.427 13.4821 219.076 13.214 219.753 13.2129H306.613C307.294 13.2129 307.947 13.4835 308.429 13.9652C308.911 14.4469 309.181 15.1003 309.181 15.7815V137.86C309.181 138.541 308.911 139.194 308.429 139.676C307.947 140.158 307.294 140.428 306.613 140.428ZM219.753 13.3029C219.102 13.3041 218.478 13.5633 218.019 14.0238C217.559 14.4843 217.301 15.1084 217.301 15.759V137.86C217.301 138.51 217.559 139.135 218.019 139.595C218.478 140.056 219.102 140.315 219.753 140.316H306.613C307.264 140.315 307.888 140.056 308.348 139.595C308.809 139.135 309.068 138.511 309.069 137.86V15.759C309.068 15.108 308.809 14.4839 308.348 14.0236C307.888 13.5632 307.264 13.304 306.613 13.3029H219.753Z" fill="#EBEBEB"/>
<path d="M403.919 140.428H317.054C316.373 140.427 315.72 140.156 315.239 139.675C314.758 139.193 314.487 138.541 314.485 137.86V15.759C314.492 15.082 314.766 14.4351 315.247 13.9585C315.728 13.4819 316.377 13.214 317.054 13.2129H403.919C404.594 13.2152 405.242 13.4838 405.721 13.9604C406.2 14.437 406.472 15.0832 406.478 15.759V137.86C406.478 138.54 406.209 139.192 405.729 139.673C405.249 140.154 404.598 140.426 403.919 140.428ZM317.054 13.3029C316.403 13.304 315.779 13.5632 315.319 14.0236C314.858 14.4839 314.599 15.108 314.598 15.759V137.86C314.599 138.511 314.858 139.135 315.319 139.595C315.779 140.056 316.403 140.315 317.054 140.316H403.919C404.57 140.315 405.194 140.056 405.654 139.595C406.114 139.135 406.374 138.511 406.375 137.86V15.759C406.374 15.108 406.114 14.4839 405.654 14.0236C405.194 13.5632 404.57 13.304 403.919 13.3029H317.054Z" fill="#EBEBEB"/>
<path d="M331.979 108.224H319.037V160.491H331.979V108.224Z" fill="#E6E6E6"/>
<path d="M326.599 160.491H331.979V151.477H320.958L326.599 160.491Z" fill="#F5F5F5"/>
<path d="M238.515 108.224H225.573V160.491H238.515V108.224Z" fill="#E6E6E6"/>
<path d="M331.975 108.224H233.819V157.387H331.975V108.224Z" fill="#F5F5F5"/>
<path d="M328.03 123.317H237.787V112.565H328.03V123.317ZM238.237 122.867H327.58V113.015H238.237V122.867Z" fill="#EBEBEB"/>
<path d="M239.199 160.491H233.819V151.477H244.84L239.199 160.491Z" fill="#F5F5F5"/>
<path d="M328.03 153.046H237.787V127.405H328.03V153.046ZM238.237 152.596H327.58V127.855H238.237V152.596Z" fill="#EBEBEB"/>
<path d="M383.478 23.793H281.192V94.6252H383.478V23.793Z" fill="#E6E6E6"/>
<path d="M385.358 23.793H283.072V94.6252H385.358V23.793Z" fill="#F5F5F5"/>
<path d="M381.979 91.0538V27.374L286.446 27.374V91.0538H381.979Z" fill="white"/>
<path d="M381.984 91.0494V27.3696H380.563V91.0494H381.984Z" fill="#E6E6E6"/>
<path d="M383.959 33.0732H284.467V35.4754H383.959V33.0732Z" fill="#F5F5F5"/>
<g opacity="0.5">
<path opacity="0.5" d="M383.684 21.4272H379.645V100.1H383.684V21.4272Z" fill="#F0F0F0"/>
<path opacity="0.5" d="M378.551 21.4272H374.512V100.1H378.551V21.4272Z" fill="#F0F0F0"/>
<path opacity="0.5" d="M373.419 21.4272H369.379V100.1H373.419V21.4272Z" fill="#F0F0F0"/>
<path opacity="0.5" d="M368.291 21.4272H364.251V100.1H368.291V21.4272Z" fill="#F0F0F0"/>
<path opacity="0.5" d="M363.158 21.4272H359.118V100.1H363.158V21.4272Z" fill="#F0F0F0"/>
<path opacity="0.5" d="M358.025 21.4272H353.985V100.1H358.025V21.4272Z" fill="#F0F0F0"/>
<path opacity="0.5" d="M352.897 21.4272H348.857V100.1H352.897V21.4272Z" fill="#F0F0F0"/>
<path opacity="0.5" d="M347.764 21.4272H343.725V100.1H347.764V21.4272Z" fill="#F0F0F0"/>
<path opacity="0.5" d="M342.631 21.4272H338.592V100.1H342.631V21.4272Z" fill="#F0F0F0"/>
<path opacity="0.5" d="M337.499 21.4272H333.459V100.1H337.499V21.4272Z" fill="#F0F0F0"/>
<path opacity="0.5" d="M332.371 21.4272H328.331V100.1H332.371V21.4272Z" fill="#F0F0F0"/>
<path opacity="0.5" d="M327.238 21.4272H323.198V100.1H327.238V21.4272Z" fill="#F0F0F0"/>
<path opacity="0.5" d="M322.105 21.4272H318.065V100.1H322.105V21.4272Z" fill="#F0F0F0"/>
<path opacity="0.5" d="M316.972 21.4272H312.933V100.1H316.972V21.4272Z" fill="#F0F0F0"/>
<path opacity="0.5" d="M311.844 21.4272H307.805V100.1H311.844V21.4272Z" fill="#F0F0F0"/>
</g>
<path d="M257.692 32.2549H228.048V86.1641H257.692V32.2549Z" fill="#F0F0F0"/>
<path d="M264.058 32.2549H229.96V86.1641H264.058V32.2549Z" fill="#F5F5F5"/>
<path d="M231.35 33.5322V84.8862H262.668V33.5322H231.35Z" fill="white"/>
<path d="M239.698 43.7529V74.6661C239.698 75.3518 240.254 75.9077 240.94 75.9077H253.081C253.767 75.9077 254.323 75.3518 254.323 74.6661V43.7529C254.323 43.0672 253.767 42.5114 253.081 42.5114H240.94C240.254 42.5114 239.698 43.0672 239.698 43.7529Z" fill="#F5F5F5"/>
<path d="M372.7 77.2212L378.763 92.165C378.588 135.39 380.54 137.883 380.563 145.318H365.268C364.701 109.138 370.068 117.271 372.7 77.2212Z" fill="#EBEBEB"/>
<path d="M381.246 121.364C368.925 87.4416 340.557 97.9454 341.831 110.312C343.104 122.678 388.331 140.874 381.246 121.364Z" fill="#EBEBEB"/>
<path d="M376.586 140.923C369.865 119.065 351.988 122.633 351.988 132.678C351.988 142.723 380.454 153.496 376.586 140.923Z" fill="#EBEBEB"/>
<path d="M376.109 101.463C365.556 72.2232 339.272 76.2718 341.39 88.593C343.509 100.914 382.187 118.269 376.109 101.463Z" fill="#EBEBEB"/>
<path d="M376.181 88.3594C377.157 68.4493 357.441 60.2532 358.808 72.165C360.176 84.0769 375.619 99.8079 376.181 88.3594Z" fill="#EBEBEB"/>
<path d="M374.71 108.742C378.871 84.2073 404.138 74.8776 401.313 88.7642C398.488 102.651 372.312 122.853 374.71 108.742Z" fill="#EBEBEB"/>
<path d="M372.582 94.8729C367.674 69.1464 390.373 57.7159 391.025 70.1316C391.678 82.5472 375.402 109.668 372.582 94.8729Z" fill="#EBEBEB"/>
<path d="M370.612 123.933C380.639 99.1417 402.101 105.291 399.946 116.573C397.791 127.855 364.845 138.193 370.612 123.933Z" fill="#EBEBEB"/>
<path d="M375.56 141.243C375.335 125.251 389.856 121.117 390.027 130.384C390.198 139.65 375.691 150.442 375.56 141.243Z" fill="#EBEBEB"/>
<path d="M371.124 160.604C367.321 160.616 363.627 159.33 360.653 156.958C357.68 154.586 355.605 151.27 354.773 147.559C354.38 145.562 353.81 143.605 353.068 141.711L352.946 141.405H389.307L389.181 141.711C388.441 143.605 387.872 145.562 387.481 147.559C386.647 151.27 384.571 154.586 381.597 156.959C378.623 159.331 374.929 160.617 371.124 160.604Z" fill="#E0E0E0"/>
<path d="M312.46 180.807C360.631 180.807 399.68 178.527 399.68 175.714C399.68 172.902 360.631 170.622 312.46 170.622C264.29 170.622 225.24 172.902 225.24 175.714C225.24 178.527 264.29 180.807 312.46 180.807Z" fill="#F5F5F5"/>
<path d="M258.196 84.711L257.913 84.3646C259.077 83.4159 260.31 82.5558 261.602 81.7915L261.831 82.1829C260.558 82.9336 259.343 83.7787 258.196 84.711Z" fill="#70DDFF"/>
<path d="M248.956 97.5677L248.538 97.4102C250.083 93.2997 252.486 89.5656 255.587 86.4565L255.907 86.7759C252.851 89.8396 250.482 93.5182 248.956 97.5677Z" fill="#70DDFF"/>
<path d="M336.109 117.392C336.075 113.487 335.088 109.65 333.232 106.213C331.377 102.777 328.71 99.846 325.464 97.6754C322.218 95.5048 318.49 94.1603 314.606 93.759C310.721 93.3576 306.798 93.9114 303.176 95.3723C300.542 89.9753 296.296 85.5306 291.024 82.6534C285.753 79.7763 279.718 78.6089 273.754 79.3131C267.79 80.0172 262.192 82.5579 257.736 86.5835C253.279 90.6092 250.185 95.9206 248.88 101.783C242.414 102.19 236.362 105.1 232.005 109.894C227.648 114.689 225.329 120.992 225.541 127.467C225.752 133.942 228.476 140.08 233.136 144.581C237.796 149.081 244.025 151.59 250.504 151.576H329.82C333.955 151.581 337.961 150.136 341.141 147.492C344.32 144.849 346.472 141.174 347.221 137.107C347.97 133.04 347.269 128.84 345.24 125.237C343.212 121.634 339.984 118.856 336.118 117.388L336.109 117.392Z" fill="#70DDFF"/>
<path d="M318.268 109.34H254.795C254.279 109.338 253.784 109.131 253.419 108.765C253.054 108.4 252.849 107.904 252.848 107.388C252.849 106.872 253.054 106.377 253.419 106.012C253.784 105.647 254.279 105.441 254.795 105.44H318.268C318.785 105.441 319.279 105.647 319.644 106.012C320.009 106.377 320.215 106.872 320.216 107.388C320.215 107.904 320.009 108.4 319.645 108.765C319.28 109.131 318.785 109.338 318.268 109.34Z" fill="#263238"/>
<path d="M308.696 135.701H264.368C262.631 135.701 260.965 135.011 259.737 133.783C258.508 132.554 257.818 130.888 257.818 129.151C257.818 127.414 258.508 125.748 259.737 124.52C260.965 123.292 262.631 122.602 264.368 122.602H308.696C310.433 122.602 312.099 123.292 313.327 124.52C314.555 125.748 315.245 127.414 315.245 129.151C315.245 130.888 314.555 132.554 313.327 133.783C312.099 135.011 310.433 135.701 308.696 135.701ZM264.368 123.051C262.75 123.051 261.199 123.694 260.055 124.838C258.911 125.982 258.268 127.533 258.268 129.151C258.268 130.769 258.911 132.321 260.055 133.465C261.199 134.608 262.75 135.251 264.368 135.251H308.696C310.313 135.251 311.865 134.608 313.009 133.465C314.153 132.321 314.795 130.769 314.795 129.151C314.795 127.533 314.153 125.982 313.009 124.838C311.865 123.694 310.313 123.051 308.696 123.051H264.368Z" fill="white"/>
<path d="M274.723 134.126H264.377C263.055 134.128 261.786 133.605 260.849 132.672C259.912 131.739 259.384 130.473 259.379 129.151C259.382 127.832 259.908 126.568 260.84 125.635C261.772 124.702 263.035 124.176 264.354 124.171H274.701C276.019 124.176 277.283 124.702 278.215 125.635C279.147 126.568 279.672 127.832 279.676 129.151C279.671 130.465 279.149 131.725 278.221 132.656C277.294 133.587 276.037 134.116 274.723 134.126Z" fill="white"/>
<path d="M320.081 71.5263L311.665 107.388H261.453L275.497 47.5361L310.266 55.6918L320.081 71.5263Z" fill="#70DDFF"/>
<path opacity="0.8" d="M320.081 71.5263L311.665 107.388H261.453L275.497 47.5361L310.266 55.6918L320.081 71.5263Z" fill="#FAFAFA"/>
<path d="M313.531 78.1927L275.394 69.2408C275.263 69.2106 275.14 69.155 275.031 69.0771C274.923 68.9992 274.83 68.9006 274.76 68.7869C274.689 68.6732 274.641 68.5467 274.62 68.4146C274.598 68.2826 274.603 68.1475 274.634 68.0173C274.695 67.7537 274.858 67.5252 275.087 67.3818C275.317 67.2384 275.593 67.1919 275.857 67.2525L313.999 76.1909C314.262 76.254 314.49 76.4184 314.632 76.6484C314.775 76.8784 314.82 77.1554 314.76 77.419C314.698 77.6839 314.535 77.9139 314.305 78.0589C314.075 78.2038 313.797 78.2519 313.531 78.1927Z" fill="#70DDFF"/>
<path d="M312.074 84.4005L273.936 75.4487C273.805 75.418 273.682 75.3619 273.573 75.2835C273.464 75.2052 273.372 75.1062 273.301 74.9921C273.231 74.8781 273.183 74.7512 273.162 74.6189C273.14 74.4865 273.145 74.3512 273.176 74.2206C273.239 73.9575 273.403 73.73 273.633 73.5877C273.863 73.4453 274.14 73.3995 274.404 73.4604L312.541 82.4122C312.804 82.4743 313.032 82.6378 313.174 82.8671C313.316 83.0964 313.362 83.3728 313.302 83.6358C313.24 83.8997 313.075 84.1283 312.845 84.2716C312.615 84.4149 312.338 84.4613 312.074 84.4005Z" fill="#70DDFF"/>
<path d="M310.617 90.5861L272.479 81.6387C272.216 81.5756 271.988 81.4112 271.846 81.1812C271.704 80.9512 271.658 80.6742 271.719 80.4106C271.783 80.1482 271.947 79.9215 272.177 79.7793C272.407 79.6371 272.683 79.5908 272.947 79.6504L311.084 88.5978C311.215 88.6285 311.338 88.6846 311.447 88.7629C311.556 88.8413 311.648 88.9403 311.719 89.0543C311.79 89.1684 311.837 89.2952 311.859 89.4276C311.88 89.56 311.875 89.6953 311.845 89.8259C311.814 89.9564 311.758 90.0797 311.68 90.1885C311.601 90.2974 311.502 90.3898 311.388 90.4604C311.274 90.531 311.147 90.5784 311.015 90.6C310.882 90.6215 310.747 90.6168 310.617 90.5861Z" fill="#70DDFF"/>
<path d="M309.163 96.812L271.021 87.8871C270.759 87.823 270.532 87.6584 270.39 87.4287C270.247 87.199 270.201 86.9226 270.261 86.6591C270.324 86.396 270.488 86.1685 270.718 86.0261C270.948 85.8837 271.225 85.838 271.489 85.8988L309.627 94.8462C309.89 94.9094 310.118 95.0736 310.261 95.3034C310.404 95.5332 310.451 95.8102 310.391 96.0743C310.324 96.3338 310.158 96.5566 309.928 96.6947C309.699 96.8327 309.424 96.8748 309.163 96.812Z" fill="#70DDFF"/>
<path d="M292.542 99.4614L269.568 94.0632C269.308 93.9973 269.084 93.8314 268.945 93.6016C268.806 93.3717 268.763 93.0964 268.826 92.8352C268.856 92.7048 268.912 92.5816 268.99 92.4728C269.068 92.364 269.166 92.2716 269.28 92.201C269.394 92.1303 269.52 92.0828 269.652 92.0612C269.784 92.0396 269.919 92.0442 270.05 92.0749L293.028 97.4731C293.158 97.5038 293.281 97.5599 293.39 97.6382C293.499 97.7165 293.591 97.8156 293.662 97.9296C293.733 98.0436 293.78 98.1705 293.802 98.3029C293.823 98.4352 293.819 98.5706 293.788 98.7011C293.757 98.8336 293.701 98.9587 293.621 99.0689C293.541 99.1792 293.441 99.2725 293.325 99.3433C293.209 99.4141 293.08 99.461 292.945 99.4813C292.811 99.5016 292.674 99.4948 292.542 99.4614Z" fill="#70DDFF"/>
<path d="M320.081 71.5264L307.256 68.5169L310.265 55.6919L320.081 71.5264Z" fill="#70DDFF"/>
<path d="M328.695 105.579L318.034 175.714H320.139L321.547 166.434H348.709L347.301 175.714H349.406L360.067 105.579H328.695ZM348.992 164.576H321.831L323.347 154.625H350.508L348.992 164.576ZM350.792 152.768H323.626L325.142 142.817H352.303L350.792 152.768ZM352.591 140.959H325.421L326.937 131.009H354.098L352.591 140.959ZM354.39 129.151H327.22L328.731 119.196H355.893L354.39 129.151ZM329.015 117.338L330.526 107.387H357.688L356.176 117.338H329.015Z" fill="#263238"/>
<path d="M364.454 105.579H333.082L343.743 175.714H345.849L344.436 166.434H371.598L373.01 175.714H375.115L364.454 105.579ZM335.462 107.378H362.623L364.135 117.329H336.973L335.462 107.378ZM337.261 119.187H364.418L365.93 129.142H338.768L337.261 119.187ZM339.06 131H366.222L367.724 140.968H340.563L339.06 131ZM340.86 142.808H368.021L369.533 152.759H342.358L340.86 142.808ZM344.166 164.567L342.655 154.616H369.816L371.328 164.567H344.166Z" fill="#263238"/>
<path opacity="0.4" d="M364.454 105.579H333.082L343.743 175.714H345.849L344.436 166.434H371.598L373.01 175.714H375.115L364.454 105.579ZM335.462 107.378H362.623L364.135 117.329H336.973L335.462 107.378ZM337.261 119.187H364.418L365.93 129.142H338.768L337.261 119.187ZM339.06 131H366.222L367.724 140.968H340.563L339.06 131ZM340.86 142.808H368.021L369.533 152.759H342.358L340.86 142.808ZM344.166 164.567L342.655 154.616H369.816L371.328 164.567H344.166Z" fill="white"/>
<path d="M351.012 37.3154C351.912 38.0082 352.704 38.7009 353.522 39.4207C354.341 40.1404 355.124 40.8782 355.897 41.6384C357.467 43.1774 358.934 44.8184 360.288 46.5507L360.792 47.23L361.044 47.5673C361.186 47.7663 361.314 47.9752 361.426 48.1926C361.788 48.9195 361.999 49.7122 362.047 50.5228C362.112 51.7722 361.983 53.0242 361.664 54.234C361.115 56.4053 360.276 58.4932 359.172 60.4419L356.874 59.5062C357.333 57.565 357.659 55.5945 357.85 53.6087C357.935 52.7527 357.908 51.8891 357.769 51.0401C357.728 50.7978 357.638 50.5665 357.503 50.3609C357.481 50.3384 357.472 50.3384 357.458 50.3249L357.215 50.0505L356.73 49.4972C355.38 48.0397 353.959 46.6182 352.456 45.2507C350.954 43.8831 349.397 42.5066 347.886 41.2291L351.012 37.3154Z" fill="#7F3E3B"/>
<path d="M357.787 58.5791L355.2 60.3785L358.349 62.2858C358.349 62.2858 359.973 60.7338 359.276 59.2944L357.787 58.5791Z" fill="#7F3E3B"/>
<path d="M353.914 63.3343L356.298 64.6703L358.368 62.2637L355.201 60.3608L353.914 63.3343Z" fill="#7F3E3B"/>
<path d="M333.401 27.9136C333.473 28.206 333.379 28.4804 333.19 28.5299C333.001 28.5794 332.785 28.3814 332.709 28.08C332.632 27.7786 332.731 27.5132 332.92 27.4638C333.109 27.4143 333.325 27.6077 333.401 27.9136Z" fill="#263238"/>
<path d="M333.406 28.4761C333.287 29.4538 333.034 30.4105 332.654 31.3191C332.89 31.4098 333.142 31.4484 333.393 31.4321C333.645 31.4158 333.89 31.345 334.112 31.2246L333.406 28.4761Z" fill="#630F0F"/>
<path d="M334.017 26.0376C333.982 26.0489 333.944 26.0489 333.909 26.0376C333.705 25.9509 333.484 25.9135 333.263 25.9284C333.041 25.9432 332.827 26.0099 332.636 26.123C332.599 26.1435 332.555 26.1495 332.513 26.1399C332.471 26.1303 332.435 26.1057 332.41 26.0709C332.385 26.036 332.373 25.9933 332.378 25.9507C332.382 25.9081 332.402 25.8686 332.434 25.8396C332.671 25.6904 332.941 25.6007 333.221 25.578C333.5 25.5553 333.781 25.6003 334.04 25.7092C334.074 25.723 334.103 25.7473 334.123 25.7787C334.143 25.81 334.152 25.8468 334.149 25.8838C334.147 25.9207 334.133 25.9559 334.109 25.9844C334.085 26.0128 334.053 26.033 334.017 26.0421V26.0376Z" fill="#263238"/>
<path d="M342.623 28.7324C343.041 31.4765 343.63 35.6825 346.042 36.7441C346.042 36.7441 346.276 39.5961 341.512 41.31C336.276 43.1949 338.075 39.6141 338.075 39.6141C340.689 37.9002 339.852 35.8084 338.637 33.9956L342.623 28.7324Z" fill="#7F3E3B"/>
<path d="M346.492 36.1548C346.492 35.2956 345.615 33.8066 344.729 33.9056C343.752 34.018 340.028 35.3901 338.669 36.6451C337.311 37.9002 338.273 40.0999 338.273 40.0999L346.492 36.1548Z" fill="#263238"/>
<path d="M375.214 140.158C374.98 140.401 374.714 140.608 374.507 140.577C374.417 140.577 374.3 140.514 374.242 140.316C374.226 140.266 374.222 140.213 374.229 140.16C374.236 140.108 374.254 140.059 374.282 140.014C374.534 139.587 375.632 139.366 375.663 139.358C375.679 139.355 375.694 139.356 375.709 139.361C375.723 139.367 375.735 139.377 375.744 139.389C375.752 139.402 375.756 139.417 375.756 139.432C375.756 139.447 375.752 139.461 375.744 139.474C375.591 139.72 375.414 139.949 375.214 140.158ZM374.476 140.019C374.451 140.041 374.43 140.067 374.413 140.095C374.397 140.121 374.387 140.15 374.383 140.181C374.379 140.211 374.382 140.241 374.39 140.271C374.435 140.41 374.503 140.419 374.525 140.424C374.755 140.451 375.227 139.974 375.511 139.555C375.135 139.63 374.781 139.788 374.476 140.019Z" fill="#70DDFF"/>
<path d="M375.735 139.488C375.727 139.498 375.716 139.506 375.704 139.511C375.331 139.628 374.354 139.596 374.134 139.29C374.102 139.242 374.088 139.184 374.093 139.126C374.098 139.068 374.122 139.013 374.161 138.971C374.197 138.922 374.243 138.882 374.295 138.852C374.348 138.823 374.407 138.805 374.467 138.8C374.957 138.741 375.7 139.349 375.731 139.376C375.741 139.384 375.749 139.395 375.754 139.408C375.759 139.421 375.76 139.434 375.758 139.448C375.754 139.463 375.747 139.477 375.735 139.488ZM374.309 139.038C374.309 139.038 374.309 139.038 374.287 139.065C374.224 139.146 374.251 139.182 374.265 139.2C374.39 139.38 375.079 139.461 375.502 139.394C375.216 139.144 374.862 138.987 374.485 138.944C374.451 138.947 374.417 138.956 374.387 138.973C374.357 138.989 374.331 139.011 374.309 139.038Z" fill="#70DDFF"/>
<path d="M347.998 149.56C347.576 149.56 347.166 149.502 347.027 149.313C346.992 149.262 346.974 149.203 346.974 149.142C346.974 149.081 346.992 149.021 347.027 148.971C347.053 148.925 347.089 148.885 347.132 148.853C347.174 148.822 347.223 148.799 347.274 148.786C347.823 148.638 348.979 149.295 349.029 149.326C349.042 149.334 349.053 149.345 349.059 149.359C349.065 149.372 349.067 149.388 349.065 149.403C349.063 149.419 349.056 149.435 349.044 149.447C349.033 149.459 349.018 149.467 349.002 149.47C348.67 149.529 348.335 149.559 347.998 149.56ZM347.477 148.921C347.426 148.914 347.374 148.914 347.324 148.921C347.292 148.928 347.262 148.94 347.236 148.959C347.209 148.978 347.187 149.002 347.171 149.029C347.117 149.128 347.135 149.173 347.171 149.205C347.324 149.416 348.156 149.421 348.772 149.335C348.372 149.116 347.934 148.975 347.481 148.921H347.477Z" fill="#70DDFF"/>
<path d="M349.002 149.47C348.991 149.474 348.98 149.474 348.97 149.47C348.57 149.295 347.782 148.571 347.841 148.206C347.841 148.116 347.917 148.008 348.133 147.986C348.214 147.976 348.295 147.983 348.372 148.006C348.45 148.029 348.522 148.068 348.583 148.121C348.886 148.479 349.066 148.926 349.096 149.394C349.098 149.408 349.096 149.421 349.09 149.434C349.085 149.447 349.076 149.458 349.065 149.466C349.055 149.471 349.044 149.474 349.034 149.475C349.023 149.476 349.012 149.474 349.002 149.47ZM348.196 148.121H348.147C348.007 148.121 347.998 148.188 347.994 148.206C347.958 148.431 348.498 148.993 348.894 149.236C348.855 148.858 348.697 148.503 348.444 148.22C348.373 148.164 348.286 148.132 348.196 148.13V148.121Z" fill="#70DDFF"/>
<path d="M352.637 149.394H349.33L349.002 141.737H352.308L352.637 149.394Z" fill="#7F3E3B"/>
<path d="M379.118 138.184L376.06 139.295L372.173 132.439L375.232 131.328L379.118 138.184Z" fill="#7F3E3B"/>
<path d="M375.579 138.993L378.161 136.321C378.207 136.275 378.267 136.246 378.331 136.238C378.395 136.23 378.46 136.243 378.516 136.276L381.08 137.85C381.142 137.889 381.195 137.941 381.234 138.003C381.273 138.065 381.297 138.135 381.305 138.208C381.314 138.28 381.305 138.354 381.281 138.423C381.257 138.492 381.218 138.555 381.166 138.606C380.266 139.506 379.758 139.924 378.624 141.098C377.922 141.818 375.844 144.247 374.882 145.264C373.919 146.28 372.803 145.435 373.109 144.94C374.481 142.722 375.309 140.612 375.358 139.519C375.364 139.323 375.443 139.135 375.579 138.993Z" fill="#263238"/>
<path d="M349.348 149.011H352.946C353.012 149.011 353.076 149.033 353.128 149.074C353.18 149.115 353.215 149.172 353.23 149.236L353.882 152.174C353.899 152.245 353.899 152.318 353.882 152.389C353.866 152.46 353.833 152.527 353.787 152.583C353.741 152.64 353.683 152.685 353.617 152.715C353.55 152.746 353.478 152.76 353.405 152.758C352.105 152.758 350.225 152.664 348.588 152.664C346.676 152.664 345.839 152.767 343.594 152.767C342.245 152.767 341.862 151.395 342.429 151.269C345.016 150.703 346.307 150.644 348.543 149.268C348.782 149.109 349.061 149.02 349.348 149.011Z" fill="#263238"/>
<path d="M340.374 43.8786C339.866 45.1606 339.326 46.3527 338.768 47.5763C338.21 48.7999 337.616 49.9875 337.005 51.175C335.765 53.6185 334.344 55.9657 332.754 58.1971C332.335 58.7639 331.885 59.3262 331.404 59.884C331.157 60.1674 330.905 60.4283 330.608 60.7207C330.264 61.0452 329.889 61.3345 329.488 61.5844C328.827 61.9887 328.131 62.3334 327.409 62.6146C326.735 62.889 326.06 63.1139 325.399 63.3118C322.792 64.0678 320.118 64.565 317.414 64.7963L316.91 62.3671C319.317 61.4989 321.764 60.5948 324.018 59.5871C324.575 59.3262 325.124 59.0608 325.637 58.7864C326.111 58.5401 326.563 58.2526 326.987 57.9272C327.133 57.8171 327.267 57.692 327.387 57.5538C327.544 57.3694 327.733 57.1535 327.904 56.933C328.251 56.4832 328.593 56.0064 328.921 55.498C329.591 54.4994 330.212 53.4153 330.81 52.3132C331.409 51.211 331.993 50.0639 332.551 48.9393C333.671 46.6586 334.755 44.297 335.754 41.9893L340.374 43.8786Z" fill="#7F3E3B"/>
<path d="M347.917 35.3402C352.658 34.9713 356.914 42.0024 356.914 42.0024L353.509 47.5354C351.059 46.5669 348.78 45.2105 346.761 43.5183C343.536 40.7158 344.678 35.5966 347.917 35.3402Z" fill="#70DDFF"/>
<path opacity="0.3" d="M347.621 41.2646L352.61 47.9808L352.385 48.2552C352.385 48.2552 350.667 46.9057 348.678 44.9534L347.621 41.2646Z" fill="black"/>
<path d="M334.769 40.5813C334.503 42.898 338.368 53.1455 339.267 65.3002L356.861 63.5683C356.735 61.2381 355.448 51.4226 353.118 40.3429C352.475 37.284 350.104 34.9448 347.041 35.5431H346.955C344.495 36.0234 342.064 36.6467 339.677 37.4099C338.326 37.9018 337.009 38.4834 335.736 39.1508C335.47 39.2913 335.242 39.4954 335.073 39.7449C334.905 39.9944 334.8 40.2817 334.769 40.5813Z" fill="#70DDFF"/>
<path opacity="0.3" d="M336.55 49.0922C336.847 50.3293 337.157 51.6698 337.449 53.0958C340.126 52.4616 339.609 46.5281 339.663 46.4517L336.55 49.0922Z" fill="black"/>
<path d="M340.499 41.7284C341.849 46.3573 336.855 52.5247 336.855 52.5247L331.826 49.2858C331.826 49.2858 331.79 45.0438 333.396 41.7329C335.434 37.5404 339.537 38.4266 340.499 41.7284Z" fill="#70DDFF"/>
<path d="M316.959 61.9263L314.939 61.6519L314.971 65.8714C314.971 65.8714 317.692 66.1503 319.204 64.2744L318.907 63.4827C318.753 63.0717 318.491 62.7101 318.148 62.4361C317.805 62.1621 317.394 61.9859 316.959 61.9263Z" fill="#7F3E3B"/>
<path d="M311.489 62.628L312.78 66.0648L314.989 65.8714L314.958 61.6519L311.489 62.628Z" fill="#7F3E3B"/>
<path opacity="0.2" d="M349.002 141.742L349.186 146.042H352.493L352.308 141.742H349.002Z" fill="black"/>
<path opacity="0.2" d="M375.232 131.328L372.173 132.439L374.323 136.236L377.238 134.859L375.232 131.328Z" fill="black"/>
<path d="M342.942 24.8097C343.639 28.44 344.233 30.5272 342.897 32.8259C340.891 36.2807 336.059 35.7724 334.296 32.4256C332.703 29.4071 331.831 23.982 334.953 21.6653C335.641 21.1477 336.45 20.815 337.303 20.6992C338.157 20.5833 339.025 20.688 339.827 21.0034C340.628 21.3187 341.335 21.8342 341.88 22.5006C342.426 23.1669 342.791 23.9619 342.942 24.8097Z" fill="#7F3E3B"/>
<path d="M336.829 27.2344C334.615 28.341 334.579 24.8052 334.755 24.054C333.923 24.8547 332.798 25.6599 330.756 24.7782C328.246 23.6941 328.956 20.8601 330.756 20.8961C330.756 20.8961 329.406 18.332 332.357 18.0621C333.572 18.0216 334.783 18.2078 335.929 18.6109C335.929 18.6109 337.022 15.7454 339.685 17.1354C341.093 17.8686 342.218 20.0369 342.218 20.0369C342.218 20.0369 347.953 20.8871 344.84 23.883C345.547 25.4215 345.173 30.4283 343.351 32.5695C342.555 33.5052 335.74 33.2308 336.829 27.2344Z" fill="#263238"/>
<path d="M341.224 21.4988C341.224 21.4988 342.263 20.0638 342.348 16.7529C344.773 19.389 341.224 21.4988 341.224 21.4988Z" fill="#263238"/>
<path d="M337.904 27.0318C337.963 27.9492 337.716 28.8603 337.203 29.6229C336.528 30.626 335.61 30.1942 335.313 29.137C335.043 28.1879 335.07 26.5189 335.984 25.8892C336.897 25.2594 337.81 25.9251 337.904 27.0318Z" fill="#7F3E3B"/>
<path d="M345.516 64.6882C345.516 64.6882 351.723 89.4296 354.701 98.6648C357.958 108.759 372.092 135.224 372.092 135.224L377.639 132.808C377.639 132.808 366.942 108.714 364.656 98.6198C362.178 87.6797 356.87 63.5591 356.87 63.5591L345.516 64.6882Z" fill="#263238"/>
<path d="M370.45 133.397C370.428 133.397 372.25 136.002 372.25 136.002L378.48 133.249L377.221 130.671L370.45 133.397Z" fill="#70DDFF"/>
<path opacity="0.3" d="M348.759 73.4105C353.158 73.8289 354.283 89.9692 354.58 98.3003C352.758 92.5693 349.829 81.4897 347.796 73.6219C348.084 73.4449 348.423 73.3704 348.759 73.4105Z" fill="black"/>
<path d="M339.276 65.2999C339.276 65.2999 339.992 90.7251 341.337 100.721C342.736 111.116 347.909 144.355 347.909 144.355H353.509C353.509 144.355 352.214 110.788 351.454 100.518C350.626 89.3215 350.842 64.1528 350.842 64.1528L339.276 65.2999Z" fill="#263238"/>
<path d="M346.793 141.742C346.77 141.742 347.243 145.129 347.243 145.129L354.049 144.895L354.112 141.746L346.793 141.742Z" fill="#70DDFF"/>
<defs>
<linearGradient id="paint0_linear" x1="18.4038" y1="-44.2312" x2="748.882" y2="105.832" gradientUnits="userSpaceOnUse">
<stop stop-color="#6C63FF"/>
<stop offset="1" stop-color="#13F1FC"/>
</linearGradient>
<linearGradient id="paint1_linear" x1="312" y1="0" x2="312" y2="146" gradientUnits="userSpaceOnUse">
<stop stop-color="#70BCFF"/>
<stop offset="1" stop-color="#6D68FF"/>
</linearGradient>
</defs>
</svg>
