<svg width="624" height="228" viewBox="0 0 624 228" fill="none" xmlns="http://www.w3.org/2000/svg">
<path opacity="0.2" d="M199.412 160.84C73.6141 176.043 15.3727 112.75 -1.07232e-06 90.9274L0 0L624 0L624 173.368C521.588 315.619 388.022 133.332 287.317 148.717C226.476 158.012 229.507 157.203 199.412 160.84Z" fill="url(#paint0_linear)"/>
<path fill-rule="evenodd" clip-rule="evenodd" d="M0 129.842L20.8 125.514C41.6 121.186 83.2 112.529 124.8 121.186C166.4 129.842 208 155.81 249.6 181.778C291.2 207.747 344 206.998 374.4 206.998C416 202.67 457.6 190.434 499.2 177.45C540.8 164.466 582.4 173.122 603.2 177.45L624 181.778V0H603.2C582.4 0 540.8 0 499.2 0C457.6 0 416 0 374.4 0C332.8 0 291.2 0 249.6 0C208 0 166.4 0 124.8 0C83.2 0 41.6 0 20.8 0H0V129.842Z" fill="url(#paint1_linear)"/>
<path d="M440 200.796H185V200.931H440V200.796Z" fill="#EBEBEB"/>
<path d="M414.449 209.484H397.558V209.619H414.449V209.484Z" fill="#EBEBEB"/>
<path d="M324.342 207.794H317.768V207.929H324.342V207.794Z" fill="#EBEBEB"/>
<path d="M363.332 208.367H349.49V208.502H363.332V208.367Z" fill="#EBEBEB"/>
<path d="M397.048 204.474H368.432V204.609H397.048V204.474Z" fill="#EBEBEB"/>
<path d="M225.285 210.721H211.755V210.856H225.285V210.721Z" fill="#EBEBEB"/>
<path d="M241.554 210.721H229.824V210.856H241.554V210.721Z" fill="#EBEBEB"/>
<path d="M282.823 207.729H251.81V207.864H282.823V207.729Z" fill="#EBEBEB"/>
<path d="M305.87 176.712H207.394C206.622 176.711 205.883 176.385 205.338 175.807C204.793 175.229 204.487 174.445 204.487 173.629V27.0564C204.494 26.2443 204.803 25.4677 205.347 24.8954C205.891 24.3232 206.627 24.0014 207.394 24H305.87C306.642 24 307.383 24.3249 307.929 24.9031C308.475 25.4814 308.782 26.2656 308.782 27.0834V173.629C308.782 174.446 308.475 175.231 307.929 175.809C307.383 176.387 306.642 176.712 305.87 176.712ZM207.394 24.108C206.656 24.1094 205.949 24.4207 205.428 24.9735C204.907 25.5262 204.614 26.2754 204.614 27.0564V173.629C204.614 174.41 204.907 175.159 205.428 175.712C205.949 176.264 206.656 176.576 207.394 176.577H305.87C306.608 176.576 307.315 176.264 307.837 175.712C308.359 175.159 308.653 174.41 308.654 173.629V27.0564C308.653 26.2749 308.359 25.5258 307.837 24.9731C307.315 24.4205 306.608 24.1094 305.87 24.108H207.394Z" fill="#EBEBEB"/>
<path d="M416.188 176.712H317.707C316.935 176.711 316.195 176.385 315.649 175.807C315.104 175.229 314.796 174.446 314.795 173.629V27.0564C314.803 26.2438 315.113 25.4672 315.658 24.8951C316.203 24.323 316.939 24.0014 317.707 24H416.188C416.954 24.0028 417.688 24.3252 418.232 24.8973C418.775 25.4695 419.083 26.2452 419.09 27.0564V173.629C419.09 174.444 418.785 175.227 418.241 175.805C417.697 176.383 416.959 176.709 416.188 176.712ZM317.707 24.108C316.969 24.1094 316.261 24.4205 315.739 24.9731C315.218 25.5258 314.924 26.2749 314.922 27.0564V173.629C314.924 174.41 315.218 175.159 315.739 175.712C316.261 176.264 316.969 176.576 317.707 176.577H416.188C416.926 176.576 417.634 176.264 418.156 175.712C418.677 175.159 418.971 174.41 418.973 173.629V27.0564C418.971 26.2749 418.677 25.5258 418.156 24.9731C417.634 24.4205 416.926 24.1094 416.188 24.108H317.707Z" fill="#EBEBEB"/>
<path d="M320.099 154.351C319.079 151.246 311.026 155.469 307.757 160.615C305.579 164.038 304.248 167.7 303.631 172.614C303.702 167.008 303.789 160.982 303.871 155.296C304.534 153.881 306.043 150.614 307.125 148.022C310.751 139.382 319.365 136.142 322.338 130.71C326.239 123.56 326.214 112.841 322.899 108.969C320.012 105.61 310.46 128.344 309.384 130.882C306.448 137.68 304.599 144.946 303.912 152.385C303.993 147.045 304.07 142.125 304.131 138.345C304.335 126.006 304.585 122.037 304.702 120.817C305.1 120.223 305.569 119.526 305.844 119.154C308.155 116.005 313.285 112.252 315.846 107.673C319.589 100.983 318.987 92.9799 316.356 89.9991C313.612 86.8833 308.757 94.2489 306.181 101.544C303.606 108.84 304.707 115.827 303.983 121.891C303.835 123.079 303.677 127.594 303.534 133.858C302.749 127.119 301.193 122.604 298.307 118.398C294.737 113.224 291.677 106.923 288.775 107.738C285.873 108.553 287.423 116.886 289.739 122.739C291.779 127.956 301.979 133.15 303.458 137.346C303.279 145.835 303.121 156.592 303.009 166.603C302.208 161.43 302.759 160.998 299.475 153.076C297.526 148.368 289.524 142.563 288.571 145.797C287.617 149.032 289.081 155.145 292.085 159.427C294.522 162.883 299.928 162.877 301.178 165.021C301.474 165.523 302.438 167.44 302.988 168.542C302.856 180.768 302.8 191.562 302.866 195.24L303.376 195.277C303.376 194.327 303.417 188.106 303.519 179.877C304.835 175.497 313.673 172.943 316.401 168.385C319.273 163.639 321.328 158.077 320.099 154.351Z" fill="#E6E6E6"/>
<path d="M311.791 200.796H294.829C294.379 200.797 293.942 200.633 293.594 200.331C293.245 200.03 293.006 199.61 292.916 199.144L291.712 192.858H314.907L313.699 199.144C313.61 199.61 313.372 200.03 313.024 200.331C312.676 200.632 312.24 200.796 311.791 200.796Z" fill="#F0F0F0"/>
<path d="M315.392 195.294H291.228C290.946 195.294 290.675 195.184 290.466 194.984C290.257 194.785 290.125 194.51 290.096 194.214L289.586 189.564C289.569 189.396 289.585 189.225 289.634 189.064C289.683 188.903 289.764 188.754 289.87 188.628C289.977 188.502 290.108 188.401 290.254 188.331C290.4 188.262 290.558 188.226 290.718 188.225H315.871C316.031 188.226 316.189 188.262 316.335 188.331C316.48 188.401 316.611 188.502 316.717 188.628C316.823 188.755 316.903 188.903 316.952 189.064C317 189.226 317.016 189.396 316.998 189.564L316.488 194.214C316.461 194.504 316.335 194.774 316.133 194.973C315.931 195.172 315.667 195.286 315.392 195.294Z" fill="#F0F0F0"/>
<path d="M389.393 198.544H405.636V125.153H389.393V198.544Z" fill="#F0F0F0"/>
<path d="M320.379 200.796H404.54V198.544H320.379V200.796Z" fill="#F0F0F0"/>
<path d="M389.388 125.153H319.288V198.544H389.388V125.153Z" fill="#F5F5F5"/>
<path d="M383.002 154.081H325.673V169.622H383.002V154.081Z" fill="#F0F0F0"/>
<path d="M383.002 174.082H325.673V189.623H383.002V174.082Z" fill="#F0F0F0"/>
<path d="M347.905 156.759H360.772C361.648 156.759 362.358 156.008 362.358 155.082C362.358 154.156 361.648 153.405 360.772 153.405H347.905C347.029 153.405 346.318 154.156 346.318 155.082C346.318 156.008 347.029 156.759 347.905 156.759Z" fill="#F5F5F5"/>
<path d="M383.002 134.079H325.673V149.62H383.002V134.079Z" fill="#F0F0F0"/>
<path d="M347.904 136.757H360.772C361.191 136.756 361.593 136.579 361.89 136.266C362.187 135.952 362.355 135.527 362.358 135.083C362.357 134.638 362.189 134.212 361.892 133.897C361.595 133.583 361.192 133.405 360.772 133.404H347.904C347.484 133.405 347.082 133.583 346.784 133.897C346.487 134.212 346.32 134.638 346.318 135.083C346.321 135.527 346.489 135.952 346.786 136.266C347.083 136.579 347.485 136.756 347.904 136.757Z" fill="#F5F5F5"/>
<path d="M347.904 176.761H360.772C361.192 176.761 361.594 176.584 361.892 176.271C362.189 175.957 362.357 175.531 362.358 175.087C362.357 174.642 362.189 174.215 361.892 173.901C361.595 173.586 361.192 173.409 360.772 173.407H347.904C347.484 173.409 347.082 173.586 346.784 173.901C346.487 174.215 346.32 174.642 346.318 175.087C346.32 175.531 346.487 175.957 346.785 176.271C347.082 176.584 347.485 176.761 347.904 176.761Z" fill="#F5F5F5"/>
<path d="M317.844 125.153L389.387 125.153V123.058L317.844 123.058V125.153Z" fill="#F0F0F0"/>
<path d="M407.176 123.063H389.387V125.158H407.176V123.063Z" fill="#E6E6E6"/>
<path d="M260.179 200.796H276.229V90.8897H260.179V200.796Z" fill="#E0E0E0"/>
<path d="M219.277 200.796H273.016L278.662 65.5151H224.923L219.277 200.796Z" fill="#E6E6E6"/>
<path d="M211.438 200.796H270.884L276.525 65.5151H217.084L211.438 200.796Z" fill="#F0F0F0"/>
<path d="M265.065 194.165L269.818 72.1519H222.903L218.145 194.165H265.065Z" fill="white"/>
<path d="M244.904 194.165L260.852 72.1519H255.849L239.901 194.165H244.904Z" fill="#FAFAFA"/>
<path d="M237.78 194.165L253.728 72.1519H245.195L229.248 194.165H237.78Z" fill="#FAFAFA"/>
<path d="M334.67 102.365L399.71 102.365V37.9428L334.67 37.9428V102.365Z" fill="#E6E6E6"/>
<path d="M332.645 102.365L398.761 102.365V37.9428L332.645 37.9428V102.365Z" fill="#F5F5F5"/>
<path d="M334.67 105L399.71 105V102.365L334.67 102.365V105Z" fill="#E6E6E6"/>
<path d="M330.84 105L392.54 105V102.365L330.84 102.365V105Z" fill="#F5F5F5"/>
<path d="M395.936 98.369V41.9336L335.47 41.9336V98.369H395.936Z" fill="#FAFAFA"/>
<path d="M335.879 98.3744V41.939H335.476V98.3744H335.879Z" fill="#E6E6E6"/>
<path d="M385.91 98.369L375.455 41.9336H361.751L372.206 98.369H385.91Z" fill="white"/>
<path d="M369.987 98.369L359.532 41.9336H353.346L363.801 98.369H369.987Z" fill="white"/>
<path d="M393.917 95.3124V35.7288C393.917 35.5469 393.777 35.3994 393.605 35.3994H393.58C393.408 35.3994 393.269 35.5469 393.269 35.7288V95.3124C393.269 95.4943 393.408 95.6418 393.58 95.6418H393.605C393.777 95.6418 393.917 95.4943 393.917 95.3124Z" fill="#EBEBEB"/>
<path opacity="0.5" d="M331.166 45.2544L400.807 45.2544V35.394L331.166 35.394V45.2544Z" fill="#E6E6E6"/>
<path d="M331.166 36.6196L400.807 36.6196V35.3938L331.166 35.3938V36.6196Z" fill="#E0E0E0"/>
<path d="M331.283 35.9341L400.694 35.9341C400.94 35.9341 401.138 35.7237 401.138 35.4643V35.3293C401.138 35.0698 400.94 34.8595 400.694 34.8595L331.283 34.8595C331.038 34.8595 330.84 35.0698 330.84 35.3293V35.4643C330.84 35.7237 331.038 35.9341 331.283 35.9341Z" fill="#EBEBEB"/>
<path d="M331.079 45.5135H400.893C400.925 45.5135 400.957 45.5068 400.986 45.4937C401.016 45.4806 401.042 45.4614 401.064 45.4373C401.087 45.4131 401.104 45.3845 401.116 45.3531C401.128 45.3217 401.134 45.2881 401.133 45.2543C401.133 45.187 401.108 45.1224 401.063 45.0748C401.018 45.0272 400.957 45.0005 400.893 45.0005H331.079C331.015 45.0005 330.954 45.027 330.908 45.0745C330.862 45.1219 330.836 45.1865 330.834 45.2543C330.834 45.323 330.86 45.389 330.906 45.4376C330.952 45.4862 331.014 45.5135 331.079 45.5135Z" fill="white"/>
<path d="M312.5 225.183C367.112 225.183 411.384 222.446 411.384 219.07C411.384 215.694 367.112 212.957 312.5 212.957C257.888 212.957 213.616 215.694 213.616 219.07C213.616 222.446 257.888 225.183 312.5 225.183Z" fill="#F5F5F5"/>
<path d="M218.067 141.224L217.551 141.288L218.469 149.601L218.986 149.537L218.067 141.224Z" fill="#70DDFF"/>
<path d="M219.328 152.629L218.812 152.693L219.275 156.888L219.791 156.824L219.328 152.629Z" fill="#70DDFF"/>
<path d="M253.641 124.273L253.029 122.453C252.608 121.202 251.799 120.14 250.733 119.439C249.668 118.739 248.409 118.442 247.164 118.597L222.791 121.616C221.331 121.797 219.999 122.585 219.087 123.807C218.176 125.028 217.76 126.582 217.931 128.128L224.867 190.93C224.924 191.456 225.079 191.964 225.322 192.426C225.566 192.887 225.892 193.294 226.284 193.622C226.676 193.95 227.125 194.193 227.605 194.337C228.086 194.481 228.588 194.524 229.084 194.462L316.294 183.662C316.791 183.602 317.272 183.439 317.71 183.182C318.147 182.925 318.532 182.58 318.843 182.165C319.154 181.75 319.384 181.274 319.521 180.765C319.658 180.255 319.698 179.722 319.64 179.196L313.622 124.905C313.506 123.845 312.996 122.877 312.206 122.215C311.416 121.553 310.41 121.25 309.409 121.373L258.766 127.648C257.678 127.781 256.578 127.52 255.647 126.907C254.717 126.294 254.009 125.366 253.641 124.273Z" fill="#70DDFF"/>
<path d="M256.075 96.962L228.521 102.776L236.086 142.972L263.64 137.158L256.075 96.962Z" fill="#70DDFF"/>
<path opacity="0.7" d="M256.075 96.962L228.521 102.776L236.086 142.972L263.64 137.158L256.075 96.962Z" fill="white"/>
<g opacity="0.4">
<path opacity="0.4" d="M252.396 106.62L235.424 110.205C235.028 110.287 234.619 110.2 234.283 109.963C233.948 109.726 233.715 109.359 233.634 108.942C233.557 108.523 233.639 108.089 233.862 107.734C234.086 107.38 234.432 107.132 234.827 107.046L251.81 103.477C252.205 103.396 252.615 103.483 252.95 103.719C253.285 103.956 253.519 104.323 253.6 104.741C253.672 105.158 253.586 105.589 253.361 105.941C253.136 106.292 252.79 106.536 252.396 106.62Z" fill="#70DDFF"/>
<path opacity="0.4" d="M253.646 113.278L236.673 116.88C236.278 116.959 235.87 116.872 235.536 116.635C235.202 116.399 234.969 116.033 234.888 115.616C234.813 115.198 234.896 114.766 235.119 114.412C235.342 114.059 235.688 113.812 236.081 113.726L253.054 110.146C253.449 110.066 253.857 110.154 254.191 110.39C254.525 110.627 254.758 110.993 254.839 111.409C254.909 111.824 254.823 112.251 254.6 112.6C254.377 112.948 254.035 113.192 253.646 113.278Z" fill="#70DDFF"/>
<path opacity="0.4" d="M254.896 119.925L237.923 123.506C237.528 123.585 237.12 123.498 236.786 123.261C236.452 123.025 236.219 122.659 236.138 122.242C236.063 121.824 236.146 121.392 236.369 121.038C236.592 120.685 236.938 120.438 237.331 120.352L254.304 116.766C254.699 116.687 255.107 116.775 255.441 117.011C255.775 117.247 256.008 117.614 256.089 118.03C256.166 118.449 256.084 118.883 255.86 119.237C255.637 119.592 255.29 119.839 254.896 119.925Z" fill="#70DDFF"/>
<path opacity="0.4" d="M256.15 126.6L239.177 130.18C238.782 130.261 238.372 130.174 238.037 129.938C237.702 129.701 237.468 129.334 237.387 128.916C237.31 128.498 237.392 128.064 237.616 127.709C237.839 127.354 238.186 127.107 238.58 127.021L255.553 123.441C255.949 123.36 256.358 123.447 256.693 123.683C257.028 123.92 257.262 124.287 257.343 124.704C257.42 125.123 257.338 125.557 257.114 125.912C256.891 126.267 256.544 126.514 256.15 126.6Z" fill="#70DDFF"/>
<path opacity="0.4" d="M252.759 134.197L240.427 136.8C240.032 136.88 239.624 136.792 239.29 136.556C238.956 136.319 238.723 135.953 238.642 135.537C238.565 135.118 238.647 134.684 238.871 134.329C239.094 133.975 239.441 133.727 239.835 133.641L252.167 131.038C252.562 130.959 252.97 131.047 253.304 131.283C253.638 131.519 253.871 131.885 253.952 132.302C254.029 132.721 253.946 133.155 253.723 133.509C253.5 133.864 253.153 134.111 252.759 134.197Z" fill="#70DDFF"/>
</g>
<path d="M295.336 89.2158L267.499 93.248L272.746 133.856L300.582 129.824L295.336 89.2158Z" fill="#70DDFF"/>
<path opacity="0.7" d="M295.336 89.2158L267.499 93.248L272.746 133.856L300.582 129.824L295.336 89.2158Z" fill="white"/>
<g opacity="0.4">
<path opacity="0.4" d="M291.111 98.628L273.964 101.112C273.565 101.167 273.161 101.054 272.84 100.796C272.52 100.538 272.308 100.157 272.251 99.735C272.198 99.3122 272.306 98.8846 272.549 98.545C272.793 98.2053 273.153 97.981 273.551 97.9206L290.697 95.4366C291.097 95.3812 291.501 95.4946 291.821 95.7524C292.142 96.0102 292.354 96.3915 292.411 96.8136C292.463 97.2364 292.356 97.664 292.113 98.0037C291.869 98.3433 291.509 98.5677 291.111 98.628Z" fill="#70DDFF"/>
<path opacity="0.4" d="M291.978 105.34L274.831 107.824C274.432 107.879 274.028 107.766 273.707 107.508C273.387 107.25 273.175 106.869 273.118 106.447C273.067 106.025 273.175 105.599 273.418 105.26C273.661 104.922 274.021 104.698 274.418 104.638L291.565 102.154C291.963 102.098 292.366 102.211 292.687 102.468C293.008 102.725 293.22 103.104 293.278 103.526C293.33 103.948 293.223 104.376 292.98 104.716C292.736 105.055 292.376 105.28 291.978 105.34Z" fill="#70DDFF"/>
<path opacity="0.4" d="M280.421 113.856L275.698 114.542C275.299 114.597 274.895 114.484 274.574 114.226C274.254 113.968 274.042 113.587 273.985 113.165C273.932 112.742 274.039 112.314 274.283 111.975C274.526 111.635 274.887 111.411 275.285 111.35L280.013 110.664C280.411 110.611 280.814 110.725 281.134 110.982C281.453 111.24 281.664 111.62 281.721 112.041C281.774 112.464 281.667 112.892 281.423 113.232C281.18 113.571 280.82 113.796 280.421 113.856Z" fill="#70DDFF"/>
<path opacity="0.4" d="M289.585 112.528L284.858 113.213C284.459 113.267 284.057 113.153 283.737 112.895C283.417 112.638 283.206 112.257 283.149 111.836C283.097 111.414 283.204 110.986 283.447 110.646C283.691 110.307 284.051 110.082 284.45 110.022L289.172 109.342C289.571 109.286 289.974 109.399 290.295 109.655C290.615 109.912 290.828 110.292 290.886 110.713C290.938 111.136 290.831 111.564 290.588 111.903C290.344 112.243 289.984 112.467 289.585 112.528Z" fill="#70DDFF"/>
<path opacity="0.4" d="M293.712 118.77L276.565 121.254C276.166 121.31 275.762 121.196 275.441 120.938C275.121 120.681 274.909 120.299 274.852 119.877C274.801 119.455 274.909 119.029 275.152 118.69C275.395 118.352 275.755 118.128 276.152 118.068L293.298 115.579C293.698 115.523 294.102 115.637 294.422 115.895C294.743 116.152 294.955 116.534 295.012 116.956C295.064 117.378 294.957 117.806 294.714 118.146C294.47 118.485 294.11 118.71 293.712 118.77Z" fill="#70DDFF"/>
<path opacity="0.4" d="M289.897 126.163L277.433 127.966C277.035 128.02 276.633 127.907 276.313 127.65C275.994 127.394 275.782 127.015 275.724 126.595C275.672 126.173 275.778 125.746 276.02 125.406C276.263 125.067 276.622 124.842 277.019 124.78L289.484 122.977C289.882 122.923 290.283 123.036 290.603 123.292C290.922 123.549 291.134 123.928 291.192 124.348C291.245 124.77 291.138 125.197 290.896 125.537C290.654 125.876 290.295 126.101 289.897 126.163Z" fill="#70DDFF"/>
</g>
<path d="M269.069 95.1407L241.079 97.7231L244.439 138.554L272.429 135.972L269.069 95.1407Z" fill="#70DDFF"/>
<path opacity="0.8" d="M269.069 95.1407L241.079 97.7231L244.439 138.554L272.429 135.972L269.069 95.1407Z" fill="white"/>
<g opacity="0.4">
<path opacity="0.4" d="M264.412 104.33L247.169 105.918C246.768 105.952 246.37 105.818 246.062 105.544C245.753 105.27 245.559 104.879 245.522 104.454C245.491 104.031 245.618 103.611 245.876 103.285C246.135 102.96 246.504 102.755 246.904 102.716L264.147 101.096C264.548 101.061 264.946 101.195 265.254 101.469C265.563 101.743 265.757 102.135 265.794 102.559C265.814 102.772 265.794 102.986 265.735 103.19C265.676 103.394 265.579 103.584 265.451 103.749C265.323 103.914 265.165 104.05 264.986 104.149C264.808 104.249 264.613 104.311 264.412 104.33Z" fill="#70DDFF"/>
<path opacity="0.4" d="M264.968 111.081L247.725 112.701C247.324 112.735 246.926 112.601 246.618 112.327C246.309 112.053 246.115 111.662 246.078 111.237C246.045 110.812 246.172 110.391 246.431 110.065C246.689 109.738 247.059 109.533 247.46 109.493L264.703 107.873C265.104 107.838 265.502 107.973 265.81 108.247C266.119 108.521 266.313 108.912 266.35 109.336C266.383 109.761 266.256 110.182 265.997 110.509C265.739 110.835 265.369 111.041 264.968 111.081Z" fill="#70DDFF"/>
<path opacity="0.4" d="M265.524 117.83L248.281 119.45C247.88 119.485 247.482 119.35 247.174 119.076C246.866 118.803 246.672 118.411 246.634 117.987C246.601 117.562 246.728 117.141 246.987 116.814C247.246 116.488 247.615 116.282 248.016 116.243L265.259 114.623C265.66 114.588 266.058 114.722 266.367 114.996C266.675 115.27 266.869 115.662 266.906 116.086C266.939 116.511 266.812 116.932 266.554 117.258C266.295 117.585 265.925 117.79 265.524 117.83Z" fill="#70DDFF"/>
<path opacity="0.4" d="M266.09 124.58L248.847 126.2C248.445 126.235 248.048 126.101 247.739 125.827C247.431 125.553 247.237 125.161 247.199 124.737C247.167 124.312 247.294 123.891 247.552 123.565C247.811 123.238 248.181 123.033 248.581 122.993L265.825 121.405C266.226 121.371 266.624 121.505 266.932 121.779C267.24 122.053 267.434 122.444 267.472 122.869C267.496 123.288 267.366 123.701 267.108 124.02C266.85 124.34 266.485 124.541 266.09 124.58Z" fill="#70DDFF"/>
<path opacity="0.4" d="M261.923 131.768L249.392 132.923C248.989 132.962 248.587 132.83 248.275 132.556C247.963 132.281 247.767 131.887 247.73 131.46C247.697 131.035 247.824 130.614 248.083 130.287C248.341 129.961 248.711 129.755 249.112 129.716L261.642 128.56C262.044 128.525 262.441 128.66 262.75 128.934C263.058 129.208 263.252 129.599 263.29 130.023C263.323 130.446 263.198 130.865 262.942 131.191C262.687 131.517 262.321 131.724 261.923 131.768Z" fill="#70DDFF"/>
</g>
<path d="M303.175 93.1569L275.112 94.5894L276.976 135.528L305.039 134.095L303.175 93.1569Z" fill="#70DDFF"/>
<path opacity="0.8" d="M303.175 93.1569L275.112 94.5894L276.976 135.528L305.039 134.095L303.175 93.1569Z" fill="white"/>
<g opacity="0.4">
<path opacity="0.4" d="M298.189 102.138L280.905 103.023C280.503 103.041 280.111 102.891 279.814 102.605C279.516 102.319 279.336 101.92 279.314 101.495C279.297 101.07 279.439 100.655 279.709 100.339C279.979 100.024 280.356 99.8341 280.757 99.8103L298.046 98.9247C298.448 98.9071 298.84 99.0574 299.138 99.3434C299.435 99.6294 299.615 100.028 299.637 100.453C299.654 100.879 299.511 101.295 299.24 101.61C298.969 101.926 298.591 102.115 298.189 102.138Z" fill="#70DDFF"/>
<path opacity="0.4" d="M298.5 108.909L281.211 109.789C280.81 109.807 280.417 109.657 280.12 109.371C279.822 109.085 279.642 108.686 279.62 108.261C279.603 107.835 279.746 107.419 280.017 107.104C280.288 106.788 280.666 106.599 281.068 106.576L298.352 105.691C298.755 105.673 299.148 105.824 299.445 106.111C299.743 106.399 299.922 106.798 299.943 107.224C299.96 107.65 299.818 108.065 299.548 108.38C299.278 108.695 298.902 108.885 298.5 108.909Z" fill="#70DDFF"/>
<path opacity="0.4" d="M286.286 116.339L281.522 116.582C281.121 116.6 280.728 116.45 280.431 116.164C280.133 115.878 279.953 115.479 279.931 115.054C279.914 114.629 280.056 114.214 280.326 113.899C280.597 113.583 280.973 113.393 281.374 113.369L286.138 113.121C286.54 113.103 286.933 113.255 287.231 113.542C287.529 113.829 287.708 114.229 287.729 114.655C287.746 115.08 287.604 115.495 287.333 115.81C287.063 116.126 286.687 116.316 286.286 116.339Z" fill="#70DDFF"/>
<path opacity="0.4" d="M295.521 115.843L290.758 116.086C290.356 116.104 289.964 115.953 289.667 115.667C289.369 115.381 289.189 114.983 289.167 114.558C289.15 114.132 289.292 113.717 289.562 113.402C289.832 113.087 290.209 112.897 290.61 112.873L295.374 112.63C295.775 112.612 296.167 112.763 296.465 113.048C296.763 113.334 296.942 113.733 296.965 114.158C296.981 114.583 296.839 114.998 296.569 115.314C296.299 115.629 295.923 115.819 295.521 115.843Z" fill="#70DDFF"/>
<path opacity="0.4" d="M299.117 122.447L281.828 123.327C281.427 123.345 281.035 123.194 280.737 122.908C280.439 122.622 280.26 122.224 280.237 121.799C280.22 121.373 280.363 120.957 280.634 120.641C280.906 120.326 281.283 120.136 281.686 120.114L298.969 119.228C299.372 119.211 299.765 119.362 300.063 119.649C300.361 119.936 300.54 120.336 300.561 120.762C300.577 121.187 300.435 121.602 300.165 121.918C299.895 122.233 299.519 122.423 299.117 122.447Z" fill="#70DDFF"/>
<path opacity="0.4" d="M294.7 129.456L282.139 130.099C281.737 130.116 281.345 129.966 281.047 129.68C280.75 129.394 280.57 128.995 280.548 128.57C280.531 128.145 280.673 127.73 280.943 127.415C281.213 127.1 281.59 126.909 281.991 126.886L294.552 126.243C294.954 126.225 295.346 126.376 295.644 126.662C295.942 126.948 296.121 127.346 296.144 127.771C296.16 128.197 296.018 128.612 295.748 128.927C295.478 129.242 295.102 129.432 294.7 129.456Z" fill="#70DDFF"/>
</g>
<path d="M261.423 125.434L260.975 123.657C260.66 122.428 259.93 121.363 258.923 120.666C257.916 119.969 256.702 119.688 255.512 119.877L231.14 122.896C229.661 123.088 228.299 123.844 227.31 125.023C226.32 126.202 225.77 127.723 225.764 129.3L227.146 190.779C227.155 191.285 227.265 191.784 227.47 192.241C227.676 192.699 227.971 193.104 228.337 193.431C228.703 193.757 229.13 193.997 229.591 194.134C230.051 194.271 230.534 194.301 231.007 194.224L318.217 183.424C319.23 183.294 320.163 182.778 320.841 181.972C321.52 181.165 321.898 180.125 321.904 179.045L320.711 125.898C320.702 125.391 320.591 124.893 320.385 124.435C320.179 123.978 319.883 123.573 319.517 123.246C319.15 122.92 318.723 122.68 318.262 122.544C317.801 122.407 317.318 122.376 316.845 122.453L266.207 128.722C265.168 128.89 264.106 128.648 263.224 128.042C262.342 127.436 261.701 126.507 261.423 125.434Z" fill="#70DDFF"/>
<path opacity="0.3" d="M261.423 125.434L260.975 123.657C260.66 122.428 259.93 121.363 258.923 120.666C257.916 119.969 256.702 119.688 255.512 119.877L231.14 122.896C229.661 123.088 228.299 123.844 227.31 125.023C226.32 126.202 225.77 127.723 225.764 129.3L227.146 190.779C227.155 191.285 227.265 191.784 227.47 192.241C227.676 192.699 227.971 193.104 228.337 193.431C228.703 193.757 229.13 193.997 229.591 194.134C230.051 194.271 230.534 194.301 231.007 194.224L318.217 183.424C319.23 183.294 320.163 182.778 320.841 181.972C321.52 181.165 321.898 180.125 321.904 179.045L320.711 125.898C320.702 125.391 320.591 124.893 320.385 124.435C320.179 123.978 319.883 123.573 319.517 123.246C319.15 122.92 318.723 122.68 318.262 122.544C317.801 122.407 317.318 122.376 316.845 122.453L266.207 128.722C265.168 128.89 264.106 128.648 263.224 128.042C262.342 127.436 261.701 126.507 261.423 125.434Z" fill="black"/>
<path d="M346.67 95.8797C346.292 97.8831 345.89 99.8595 345.436 101.82C344.982 103.78 344.538 105.762 344.043 107.722L343.289 110.654L343.192 111.032C343.146 111.194 343.095 111.356 343.034 111.523C342.903 111.891 342.732 112.241 342.524 112.566C342.271 112.969 341.947 113.318 341.57 113.592C341.155 113.89 340.676 114.075 340.178 114.132C339.422 114.19 338.667 114.019 338 113.64C337.493 113.348 337.018 112.999 336.582 112.598C335.794 111.868 335.096 111.035 334.506 110.119L335.96 108.78C336.654 109.352 337.387 109.868 338.153 110.325C338.486 110.524 338.838 110.686 339.203 110.805C339.515 110.913 339.79 110.897 339.79 110.843C339.79 110.789 339.739 110.843 339.713 110.843C339.688 110.843 339.713 110.843 339.713 110.751C339.713 110.659 339.775 110.562 339.81 110.422L339.928 109.822L340.519 106.874L341.718 100.977C342.105 99.0117 342.524 97.0407 342.926 95.0967L346.67 95.8797Z" fill="#FFC3BD"/>
<path d="M344.977 89.7073C340.626 93.2335 340.805 99.8809 340.805 99.8809L348.582 101.852C348.582 101.852 350.974 95.1667 350.005 92.7205C348.995 90.1717 347.43 87.7201 344.977 89.7073Z" fill="#263238"/>
<path d="M336.348 108.861L333.487 105.832L331.957 110.573C331.957 110.573 334.374 111.95 336.684 110.648L336.348 108.861Z" fill="#FFC3BD"/>
<path d="M329.523 105.362L328.998 109.109L331.941 110.573L333.486 105.832L329.523 105.362Z" fill="#FFC3BD"/>
<path d="M370.191 215.084L365.816 215.538L361.261 204.506L365.637 204.052L370.191 215.084Z" fill="#FFC3BD"/>
<path d="M398.384 198.777L395.095 202.044L388 193.787L391.29 190.52L398.384 198.777Z" fill="#FFC3BD"/>
<path d="M393.59 200.478L396.059 195.769C396.1 195.686 396.169 195.623 396.251 195.59C396.334 195.557 396.425 195.557 396.507 195.591L400.307 197.124C400.401 197.166 400.485 197.228 400.555 197.307C400.624 197.386 400.678 197.479 400.711 197.581C400.744 197.683 400.757 197.791 400.748 197.898C400.739 198.006 400.708 198.11 400.659 198.204C399.771 199.824 399.267 200.569 398.18 202.643C397.512 203.917 396.212 206.839 395.289 208.583C394.365 210.327 392.672 209.474 392.907 208.653C393.963 204.97 393.764 202.924 393.468 201.304C393.417 201.022 393.46 200.73 393.59 200.478Z" fill="#263238"/>
<path d="M365.234 214.107H370.61C370.706 214.107 370.8 214.141 370.877 214.204C370.953 214.266 371.008 214.354 371.033 214.453L372.201 218.951C372.23 219.057 372.234 219.169 372.215 219.277C372.195 219.386 372.152 219.488 372.089 219.576C372.025 219.663 371.943 219.734 371.85 219.782C371.756 219.83 371.652 219.854 371.548 219.853C369.651 219.853 368.753 219.853 366.392 219.853H359.17C357.202 219.853 356.794 217.752 357.605 217.558C361.251 216.705 363.347 215.527 364.474 214.404C364.683 214.208 364.955 214.101 365.234 214.107Z" fill="#263238"/>
<path opacity="0.2" d="M361.266 204.511L363.612 210.197H368.177L365.642 204.058L361.266 204.511Z" fill="black"/>
<path opacity="0.2" d="M391.29 190.525L388 193.792L391.662 198.048L394.952 194.775L391.29 190.525Z" fill="black"/>
<path d="M346.292 89.0271C346.292 89.0271 344.324 89.9397 350.923 117.588L369.253 115.908C368.304 108.04 367.896 103.17 370.135 86.6295C367.524 86.3025 364.894 86.1779 362.266 86.2569C359.478 86.3011 356.696 86.5555 353.942 87.0183C351.362 87.5503 348.809 88.2207 346.292 89.0271Z" fill="#263238"/>
<path d="M362.266 86.1001C362.266 86.1001 363.286 86.1001 364.53 86.1001C365.27 87.3043 362.873 92.5801 358.92 96.0307C358.318 94.1124 357.213 92.4153 355.733 91.1383L362.266 86.1001Z" fill="white"/>
<path d="M353.942 86.9478C353.942 86.9478 353.478 87.0179 352.372 87.2879C351.632 88.4921 350.383 93.6384 352.56 96.2628C353.109 94.2726 354.208 92.5025 355.717 91.1814L353.942 86.9478Z" fill="white"/>
<path d="M360.629 76.4072C360.338 79.2908 360.236 84.5072 362.266 86.2568C362.266 86.2568 360.098 88.6004 355.718 91.1816C352.53 88.8488 353.943 87.0182 353.943 87.0182C356.865 85.9922 356.595 83.654 355.896 81.494L360.629 76.4072Z" fill="#FFC3BD"/>
<path d="M355.641 91.1979C355.641 91.1979 358.329 88.0983 359.721 88.6923C361.113 89.2863 360.037 90.3501 359.915 91.3491C359.793 92.3481 360.456 95.0049 358.594 94.3137C356.733 93.6225 355.641 91.1979 355.641 91.1979Z" fill="#70DDFF"/>
<path d="M355.534 91.1327C355.534 91.1327 354.264 88.7567 352.892 89.0753C351.52 89.3939 352.336 90.2255 352.459 91.1219C352.617 92.2667 351.474 94.4699 353.127 93.8219C354.779 93.1739 355.534 91.1327 355.534 91.1327Z" fill="#70DDFF"/>
<g opacity="0.2">
<path opacity="0.2" d="M354.83 90.62C354.812 91.0991 354.899 91.5761 355.085 92.0132C355.254 91.7341 355.402 91.4416 355.529 91.1384C355.34 90.7999 355.124 90.48 354.881 90.1826C354.839 90.3239 354.822 90.4721 354.83 90.62Z" fill="black"/>
<path opacity="0.2" d="M356.62 90.1934C356.044 90.7334 355.646 91.1978 355.646 91.1978C355.794 91.5219 355.965 91.8342 356.156 92.132C356.464 91.8047 356.646 91.3677 356.666 90.9062C356.715 90.6688 356.699 90.4215 356.62 90.1934Z" fill="black"/>
</g>
<path d="M355.61 92.1697C355.228 92.1697 354.993 91.7323 354.967 90.6901C354.942 89.6479 355.697 90.2257 355.697 90.2257C355.697 90.2257 356.717 89.6857 356.533 90.9331C356.401 91.9213 356.003 92.1697 355.61 92.1697Z" fill="#70DDFF"/>
<path opacity="0.2" d="M358.701 78.4858L355.901 81.4936C356.069 81.9944 356.197 82.5092 356.283 83.0326C357.41 82.7572 359.042 81.5152 359.058 80.2408C359.04 79.6379 358.919 79.0433 358.701 78.4858Z" fill="black"/>
<path d="M356.298 66.6601C356.298 66.6601 353.238 71.1475 352.728 73.1401C350.648 74.4253 350.229 68.1019 351.331 64.2031C354.768 66.4873 356.298 66.6601 356.298 66.6601Z" fill="#263238"/>
<path d="M363.026 71.9038C361.888 76.51 361.496 78.4864 358.833 80.4142C354.82 83.3194 349.725 80.8354 349.536 75.9592C349.368 71.5744 351.255 64.7758 355.911 63.82C356.937 63.5994 358 63.6613 358.997 63.9997C359.994 64.3381 360.892 64.9417 361.606 65.7527C362.32 66.5638 362.825 67.5552 363.074 68.6321C363.322 69.7091 363.306 70.8355 363.026 71.9038Z" fill="#FFC3BD"/>
<path d="M365.392 70.0622C365.392 70.0622 363.204 73.8152 362.908 75.4622C361.322 76.6016 360.654 71.6012 361.322 68.4422C362.051 65.6288 365.392 70.0622 365.392 70.0622Z" fill="#263238"/>
<path d="M364.52 67.4539C363.888 67.9615 363.219 66.0877 363.847 64.6513C362.638 64.7323 361.185 63.9709 361.496 62.7343C359.114 63.5821 358.232 61.0171 358.507 59.2405C358.839 57.0805 360.613 56.6215 361.659 57.1885C361.659 56.2219 363.964 54.2077 364.841 55.7845C366.468 55.1743 369.09 55.3633 369.033 57.4801C370.11 57.5125 373.287 58.8031 372.093 61.8001C373.496 61.8865 374.256 63.7711 373.476 65.1967C373.783 65.3691 374.047 65.6173 374.244 65.9203C374.442 66.2233 374.568 66.5723 374.611 66.9377C374.655 67.3031 374.615 67.6742 374.494 68.0197C374.374 68.3652 374.177 68.6749 373.919 68.9227C374.567 70.3483 372.603 72.4705 371.558 72.2167C370.762 73.5073 369.543 74.4793 368.748 73.3777C367.218 74.5711 365.458 73.0537 365.851 71.8873C364.117 71.6065 362.347 68.5447 364.52 67.4539Z" fill="#263238"/>
<path d="M367.111 62.9178C368.254 64.9374 368.157 67.2378 366.902 68.0208C365.647 68.8038 363.694 67.8318 362.552 65.8122C361.409 63.7926 361.501 61.4922 362.761 60.7092C364.021 59.9262 365.969 60.9036 367.111 62.9178Z" fill="#70DDFF"/>
<path d="M356.503 66.1202C356.437 66.698 354.932 66.5467 354.499 65.5261C353.877 66.2173 352.413 66.5738 351.913 65.8232C351.067 67.508 349.363 67.0651 348.925 66.2605C348.486 65.4559 348.195 63.9602 349.078 63.6632C348.568 63.1988 348.721 61.0118 350.057 61.2872C350.618 60.1208 352.153 58.7978 353.275 59.8292C353.887 59.2892 356.335 58.166 357.324 60.2234C357.541 60.0663 357.789 59.9634 358.049 59.9224C358.309 59.8814 358.574 59.9032 358.825 59.9864C359.076 60.0696 359.306 60.2118 359.497 60.4025C359.689 60.5932 359.837 60.8273 359.93 61.0874C361.516 60.65 362.205 61.9244 362.2 62.6156C363.327 62.9396 363.403 65.0024 362.71 65.4452C362.98 66.4874 362.837 67.6052 361.802 67.508C361.603 68.912 359.828 69.128 359.41 68.3666C358.258 69.1496 355.906 67.7888 356.503 66.1202Z" fill="#263238"/>
<path d="M353.81 62.1348C355.1 60.2448 359.808 59.4348 363.883 62.2914C367.555 64.8456 367.315 70.7802 364.393 70.4616C361.47 70.143 358.584 66.5196 358.584 66.5196L353.81 62.1348Z" fill="#263238"/>
<path d="M363.383 76.0616C362.976 76.8736 362.283 77.4829 361.455 77.7572C360.348 78.1082 359.777 77.0714 360.063 75.9536C360.323 74.9492 361.205 73.556 362.322 73.6964C362.566 73.7307 362.797 73.8289 362.996 73.9822C363.194 74.1354 363.354 74.3388 363.459 74.5739C363.565 74.8089 363.613 75.0682 363.599 75.328C363.586 75.5878 363.512 75.84 363.383 76.0616Z" fill="#FFC3BD"/>
<path d="M350.923 117.588C350.923 117.588 344.722 146.64 348.883 167.122C351.658 180.838 361.633 208.545 361.633 208.545L369.457 208.335C369.457 208.335 361.883 179.256 360.317 167.835C357.64 148.276 364.346 116.378 364.346 116.378L350.923 117.588Z" fill="#70DDFF"/>
<path opacity="0.2" d="M358.073 123.458L361.97 129.986C360.792 137.727 360.044 145.534 359.731 153.368C354.248 142.946 356.87 128.971 358.073 123.458Z" fill="black"/>
<path d="M360.532 208.977L370.192 208.713L369.636 205.575L359.777 206.067L360.532 208.977Z" fill="#263238"/>
<path d="M354.932 117.28C354.932 117.28 358.568 148.087 366.458 164.908C372.828 178.494 389.826 197.848 389.826 197.848L394.172 193.107C394.172 193.107 382.691 172.09 377.959 163.066C366.346 140.926 375.837 124.051 369.253 115.924L354.932 117.28Z" fill="#70DDFF"/>
<path d="M389.388 198.469L394.998 192.68L393.136 189.996L387.185 196.282L389.388 198.469Z" fill="#263238"/>
<path d="M369.436 114.747L370.405 116.41C370.482 116.535 370.339 116.686 370.13 116.707L350.903 118.468C350.74 118.468 350.597 118.408 350.577 118.3L350.271 116.578C350.245 116.459 350.383 116.346 350.561 116.329L369.125 114.628C369.182 114.617 369.241 114.622 369.296 114.643C369.351 114.664 369.399 114.7 369.436 114.747Z" fill="#70DDFF"/>
<path opacity="0.5" d="M369.436 114.747L370.405 116.41C370.482 116.535 370.339 116.686 370.13 116.707L350.903 118.468C350.74 118.468 350.597 118.408 350.577 118.3L350.271 116.578C350.245 116.459 350.383 116.346 350.561 116.329L369.125 114.628C369.182 114.617 369.241 114.622 369.296 114.643C369.351 114.664 369.399 114.7 369.436 114.747Z" fill="white"/>
<path d="M367.121 117.172L367.631 117.129C367.728 117.129 367.799 117.058 367.789 116.994L367.371 114.758C367.371 114.688 367.269 114.645 367.167 114.655L366.657 114.699C366.555 114.699 366.483 114.769 366.499 114.834L366.917 117.069C366.932 117.134 367.024 117.183 367.121 117.172Z" fill="#70DDFF"/>
<path d="M352.316 118.527L352.826 118.484C352.923 118.484 352.994 118.414 352.984 118.349L352.566 116.113C352.547 116.074 352.517 116.043 352.48 116.025C352.443 116.006 352.402 116.001 352.362 116.011L351.852 116.054C351.75 116.054 351.678 116.124 351.693 116.189L352.112 118.424C352.127 118.5 352.219 118.538 352.316 118.527Z" fill="#70DDFF"/>
<path d="M359.721 117.852L360.231 117.803C360.333 117.803 360.404 117.733 360.389 117.668L359.971 115.433C359.971 115.368 359.869 115.319 359.772 115.33L359.262 115.379C359.165 115.379 359.094 115.449 359.104 115.514L359.522 117.749C359.532 117.814 359.619 117.857 359.721 117.852Z" fill="#70DDFF"/>
<path d="M355.661 71.7466C355.59 72.1246 355.345 72.3946 355.11 72.346C354.876 72.2974 354.743 71.9464 354.81 71.5684C354.876 71.1904 355.131 70.9204 355.365 70.969C355.6 71.0176 355.733 71.3632 355.661 71.7466Z" fill="#263238"/>
<path d="M351.601 70.8984C351.671 70.518 351.538 70.1699 351.303 70.121C351.068 70.0721 350.821 70.3409 350.75 70.7213C350.679 71.1018 350.813 71.4498 351.047 71.4987C351.282 71.5476 351.53 71.2788 351.601 70.8984Z" fill="#263238"/>
<path d="M351.413 70.1699L350.597 69.7271C350.597 69.7271 350.908 70.5317 351.413 70.1699Z" fill="#263238"/>
<path d="M352.999 71.8496C352.522 72.6504 351.941 73.3773 351.275 74.0096C351.43 74.19 351.62 74.3319 351.833 74.4253C352.045 74.5186 352.275 74.5611 352.504 74.5496L352.999 71.8496Z" fill="#ED847E"/>
<path d="M354.162 76.3314C354.915 76.3399 355.644 76.0467 356.202 75.5106C356.213 75.5021 356.222 75.4911 356.228 75.4785C356.234 75.4659 356.238 75.452 356.239 75.4378C356.239 75.4235 356.237 75.4093 356.232 75.396C356.227 75.3828 356.219 75.3709 356.209 75.3612C356.199 75.3515 356.188 75.3443 356.175 75.34C356.162 75.3357 356.148 75.3344 356.135 75.3363C356.121 75.3382 356.109 75.3432 356.097 75.3509C356.086 75.3586 356.076 75.3689 356.069 75.381C355.726 75.7014 355.316 75.9315 354.873 76.0526C354.43 76.1736 353.966 76.1822 353.519 76.0776C353.508 76.0753 353.496 76.0754 353.485 76.078C353.473 76.0805 353.463 76.0855 353.453 76.0925C353.444 76.0996 353.436 76.1086 353.429 76.119C353.423 76.1294 353.419 76.1411 353.417 76.1532C353.414 76.1653 353.414 76.178 353.416 76.1904C353.418 76.2027 353.423 76.2144 353.429 76.2247C353.436 76.235 353.445 76.2436 353.455 76.2499C353.465 76.2562 353.477 76.2601 353.489 76.2612C353.71 76.3104 353.936 76.3339 354.162 76.3314Z" fill="#263238"/>
<path d="M358.094 70.2725C358.126 70.272 358.158 70.2627 358.186 70.2455C358.227 70.2197 358.256 70.1779 358.267 70.1293C358.279 70.0807 358.271 70.0293 358.247 69.9863C358.078 69.6829 357.844 69.4266 357.563 69.2387C357.281 69.0508 356.962 68.9369 356.63 68.9063C356.607 68.9056 356.584 68.9098 356.562 68.9186C356.54 68.9275 356.52 68.9408 356.503 68.9578C356.486 68.9749 356.472 68.9953 356.462 69.018C356.453 69.0407 356.448 69.0651 356.447 69.0899C356.446 69.1147 356.45 69.1395 356.458 69.1627C356.467 69.1859 356.479 69.2071 356.496 69.2252C356.512 69.2432 356.531 69.2577 356.552 69.2679C356.574 69.278 356.597 69.2836 356.62 69.2843C356.894 69.3162 357.156 69.4166 357.386 69.5771C357.616 69.7377 357.806 69.9539 357.941 70.2077C357.96 70.2308 357.984 70.2487 358.01 70.2599C358.037 70.2712 358.066 70.2755 358.094 70.2725Z" fill="#263238"/>
<path d="M350.485 68.75C350.513 68.757 350.543 68.757 350.571 68.75C350.808 68.6016 351.075 68.5144 351.35 68.4957C351.624 68.4769 351.899 68.527 352.152 68.642C352.194 68.6603 352.24 68.6615 352.282 68.6452C352.324 68.6289 352.359 68.5965 352.38 68.5543C352.4 68.5121 352.405 68.4633 352.393 68.4175C352.381 68.3717 352.354 68.3323 352.316 68.3072C352.01 68.1607 351.676 68.0945 351.341 68.1143C351.006 68.134 350.681 68.2391 350.393 68.4206C350.353 68.4455 350.324 68.4859 350.311 68.5333C350.299 68.5807 350.304 68.6313 350.327 68.6744C350.344 68.701 350.368 68.7221 350.396 68.7355C350.424 68.7488 350.454 68.7538 350.485 68.75Z" fill="#263238"/>
<path d="M370.915 91.0464C371.262 91.4028 371.502 91.6836 371.772 92.0022C372.043 92.3208 372.282 92.634 372.527 92.9526C373.012 93.5952 373.476 94.254 373.909 94.929C374.771 96.2899 375.535 97.7177 376.194 99.2004C376.851 100.69 377.382 102.239 377.78 103.828C377.979 104.622 378.157 105.448 378.29 106.242C378.543 107.389 378.419 108.593 377.938 109.655C377.658 110.213 377.271 110.702 376.801 111.091C376.393 111.423 375.946 111.695 375.47 111.901C374.651 112.235 373.793 112.45 372.92 112.538C371.37 112.696 369.809 112.674 368.263 112.474C365.305 112.109 362.385 111.453 359.542 110.513L360.012 108.553C361.399 108.796 362.827 109.023 364.234 109.18C365.642 109.336 367.06 109.477 368.452 109.509C369.801 109.56 371.151 109.481 372.486 109.271C373.061 109.172 373.62 108.991 374.149 108.731C374.473 108.602 374.74 108.35 374.899 108.024C374.941 107.899 374.962 107.768 374.96 107.635C374.967 107.538 374.967 107.441 374.96 107.344C374.96 107.236 374.924 107.138 374.878 106.939C374.735 106.242 374.547 105.556 374.343 104.876C373.928 103.519 373.416 102.198 372.813 100.923C372.206 99.6407 371.511 98.4079 370.732 97.2348C370.349 96.6408 369.946 96.063 369.528 95.5068C369.319 95.226 369.1 94.9668 368.886 94.6914C368.671 94.416 368.427 94.1514 368.258 93.957L370.915 91.0464Z" fill="#FFC3BD"/>
<path d="M361.179 108.85L357.609 106.847L357.446 111.852C357.446 111.852 359.996 112.025 361.455 110.772L361.179 108.85Z" fill="#FFC3BD"/>
<path d="M354.916 135.78L357.864 101.863L351.566 96.7547L332.339 94.8809L328.998 133.253L354.916 135.78Z" fill="#70DDFF"/>
<path opacity="0.8" d="M354.916 135.78L357.864 101.863L351.566 96.7547L332.339 94.8809L328.998 133.253L354.916 135.78Z" fill="white"/>
<path d="M357.865 101.863L351.566 96.7544L353.219 102.867L357.865 101.863Z" fill="#70DDFF"/>
<path d="M331.252 139.182C335.59 139.182 339.106 135.459 339.106 130.866C339.106 126.273 335.59 122.55 331.252 122.55C326.915 122.55 323.398 126.273 323.398 130.866C323.398 135.459 326.915 139.182 331.252 139.182Z" fill="#70DDFF"/>
<path d="M335.133 136.064C337.847 133.794 338.309 129.623 336.165 126.75C334.021 123.876 330.082 123.387 327.368 125.657C324.654 127.928 324.192 132.098 326.337 134.971C328.481 137.845 332.419 138.334 335.133 136.064Z" fill="white"/>
<path d="M335.124 130.283L332.359 129.943L332.681 127.016L330.702 126.768L330.381 129.694L327.616 129.349L327.382 131.449L330.146 131.795L329.82 134.716L331.804 134.965L332.125 132.038L334.889 132.384L335.124 130.283Z" fill="#70DDFF"/>
<path opacity="0.4" d="M353.162 108.893C353.137 109.19 353.056 109.479 352.925 109.743C352.794 110.007 352.615 110.24 352.399 110.431C352.182 110.622 351.932 110.765 351.663 110.853C351.395 110.942 351.112 110.973 350.832 110.945L336.807 109.579C336.241 109.523 335.719 109.232 335.356 108.769C334.993 108.307 334.817 107.711 334.869 107.111C334.894 106.815 334.975 106.526 335.106 106.262C335.237 105.998 335.416 105.764 335.632 105.574C335.849 105.383 336.098 105.24 336.367 105.152C336.636 105.063 336.919 105.032 337.199 105.059L351.224 106.426C351.505 106.453 351.777 106.538 352.026 106.677C352.276 106.816 352.496 107.005 352.676 107.234C352.856 107.463 352.992 107.728 353.075 108.013C353.159 108.297 353.188 108.597 353.162 108.893Z" fill="#70DDFF"/>
<path opacity="0.4" d="M348.383 115.023C348.358 115.319 348.277 115.608 348.146 115.872C348.015 116.136 347.836 116.37 347.62 116.56C347.403 116.751 347.153 116.894 346.884 116.983C346.616 117.071 346.333 117.102 346.053 117.075L336.25 116.119C335.97 116.092 335.697 116.006 335.448 115.868C335.199 115.729 334.978 115.539 334.798 115.31C334.618 115.081 334.483 114.817 334.399 114.532C334.316 114.247 334.286 113.948 334.312 113.651C334.338 113.354 334.419 113.066 334.55 112.802C334.681 112.538 334.86 112.304 335.076 112.113C335.292 111.923 335.542 111.779 335.811 111.691C336.08 111.603 336.363 111.572 336.643 111.599L346.445 112.56C347.01 112.616 347.531 112.907 347.894 113.368C348.257 113.83 348.433 114.424 348.383 115.023Z" fill="#70DDFF"/>
<path d="M355.427 107.144L355.962 110.886L357.441 111.852L357.604 106.847L355.427 107.144Z" fill="#FFC3BD"/>
<path d="M370.13 86.6399C372.379 87.0611 375.531 93.8867 375.531 93.8867L369.865 99.2867C369.865 99.2867 365.356 94.0811 365.596 90.9815C365.805 88.3625 367.274 86.0999 370.13 86.6399Z" fill="#263238"/>
<path d="M392.713 203.01C392.772 203.009 392.83 203 392.887 202.983C393.427 202.789 393.779 201.736 393.942 201.126C393.946 201.108 393.945 201.09 393.939 201.073C393.934 201.056 393.924 201.041 393.912 201.029C393.898 201.017 393.881 201.01 393.863 201.01C393.846 201.01 393.828 201.017 393.815 201.029C393.652 201.115 392.213 201.93 392.167 202.53C392.161 202.595 392.172 202.661 392.199 202.72C392.226 202.78 392.268 202.83 392.32 202.865C392.432 202.959 392.57 203.011 392.713 203.01ZM393.733 201.293C393.483 202.136 393.162 202.692 392.856 202.8C392.787 202.822 392.713 202.825 392.642 202.808C392.571 202.791 392.506 202.755 392.453 202.703C392.426 202.686 392.403 202.661 392.389 202.632C392.374 202.602 392.368 202.568 392.371 202.535C392.371 202.168 393.213 201.59 393.708 201.293H393.733Z" fill="#70DDFF"/>
<path d="M392.489 201.53C392.978 201.528 393.461 201.408 393.901 201.179C393.914 201.171 393.924 201.159 393.931 201.144C393.938 201.13 393.942 201.114 393.942 201.098C393.943 201.082 393.939 201.065 393.93 201.051C393.922 201.036 393.91 201.025 393.896 201.017C393.85 200.99 392.713 200.326 392.101 200.558C392.024 200.582 391.953 200.625 391.895 200.683C391.836 200.741 391.792 200.813 391.764 200.893C391.726 200.969 391.713 201.056 391.728 201.141C391.743 201.225 391.785 201.302 391.846 201.358C392.036 201.489 392.262 201.55 392.489 201.53ZM393.656 201.098C393.172 201.32 392.228 201.455 391.963 201.217C391.917 201.174 391.871 201.109 391.933 200.963C391.951 200.91 391.981 200.861 392.02 200.822C392.058 200.783 392.106 200.753 392.157 200.737C392.57 200.58 393.335 200.931 393.656 201.12V201.098Z" fill="#70DDFF"/>
<path d="M362.852 215.025C363.345 215.013 363.836 214.946 364.316 214.825C364.333 214.819 364.347 214.807 364.358 214.792C364.368 214.776 364.373 214.758 364.373 214.739C364.373 214.72 364.368 214.702 364.358 214.686C364.347 214.671 364.333 214.659 364.316 214.653C364.097 214.539 362.143 213.573 361.654 213.94C361.609 213.971 361.573 214.015 361.55 214.066C361.528 214.118 361.519 214.175 361.526 214.231C361.527 214.337 361.552 214.441 361.598 214.535C361.644 214.629 361.71 214.71 361.791 214.771C362.11 214.973 362.482 215.062 362.852 215.025ZM364.01 214.701C363.434 214.815 362.363 214.966 361.919 214.615C361.862 214.567 361.815 214.508 361.782 214.44C361.749 214.372 361.729 214.297 361.725 214.221C361.721 214.197 361.723 214.172 361.732 214.15C361.741 214.128 361.757 214.109 361.776 214.096C362.046 213.897 363.199 214.323 364.01 214.701Z" fill="#70DDFF"/>
<path d="M364.296 214.831C364.316 214.837 364.337 214.837 364.357 214.831C364.37 214.819 364.379 214.803 364.384 214.786C364.388 214.769 364.388 214.75 364.383 214.733C364.383 214.647 363.924 212.611 362.853 212.741C362.587 212.779 362.511 212.914 362.501 213.027C362.434 213.567 363.663 214.588 364.25 214.847L364.296 214.831ZM362.96 212.903C363.638 212.903 364.031 214.091 364.163 214.566C363.526 214.21 362.633 213.362 362.689 213.032C362.689 213.005 362.689 212.93 362.888 212.908L362.96 212.903Z" fill="#70DDFF"/>
<path d="M355.462 71.0126L354.651 70.5698C354.651 70.5698 354.962 71.3744 355.462 71.0126Z" fill="#263238"/>
<defs>
<linearGradient id="paint0_linear" x1="18.4038" y1="-62.638" x2="764.02" y2="45.5237" gradientUnits="userSpaceOnUse">
<stop stop-color="#6C63FF"/>
<stop offset="1" stop-color="#13F1FC"/>
</linearGradient>
<linearGradient id="paint1_linear" x1="312" y1="0" x2="312" y2="207" gradientUnits="userSpaceOnUse">
<stop stop-color="#6D68FF"/>
<stop offset="1" stop-color="#70BCFF"/>
</linearGradient>
</defs>
</svg>
