<svg width="20" height="20" viewBox="0 0 20 20" fill="none" xmlns="http://www.w3.org/2000/svg">
<path d="M17.0711 2.92895C15.1823 1.0402 12.6711 0 10 0C7.32887 0 4.81766 1.0402 2.92887 2.92895C1.04016 4.8177 0 7.32891 0 10C0 12.6711 1.04016 15.1823 2.92887 17.0711C4.81766 18.9598 7.32887 20 10 20C10.3236 20 10.5859 19.7377 10.5859 19.4141C10.5859 19.0905 10.3236 18.8281 10 18.8281C5.13215 18.8281 1.17188 14.8679 1.17188 10C1.17188 5.13215 5.13215 1.17188 10 1.17188C14.8678 1.17188 18.8281 5.13215 18.8281 10V12.3535C18.8281 13.3282 18.0352 14.1211 17.0605 14.1211C16.0859 14.1211 15.293 13.3282 15.293 12.3535V10C15.293 7.08145 12.9186 4.70703 10 4.70703C7.08145 4.70703 4.70703 7.08145 4.70703 10C4.70703 12.9186 7.08145 15.293 10 15.293C11.7311 15.293 13.2707 14.4576 14.237 13.1688C14.5914 14.3941 15.7226 15.293 17.0605 15.293C18.6814 15.293 20 13.9743 20 12.3535V10C20 7.32891 18.9598 4.8177 17.0711 2.92895ZM10 14.1211C7.72758 14.1211 5.87891 12.2724 5.87891 10C5.87891 7.72762 7.72758 5.87891 10 5.87891C12.2724 5.87891 14.1211 7.72762 14.1211 10C14.1211 12.2724 12.2724 14.1211 10 14.1211Z" fill="#B7B6CC"/>
</svg>
