<svg width="22" height="22" viewBox="0 0 22 22" fill="none" xmlns="http://www.w3.org/2000/svg">
<g clip-path="url(#clip0)">
<path d="M17.0372 4.01562C16.8078 4.01562 16.5784 4.10296 16.4037 4.2776C16.0545 4.62687 16.0545 5.19526 16.4037 5.54453C16.753 5.8938 17.3214 5.8938 17.6707 5.54453C18.0199 5.19526 18.0199 4.62687 17.6707 4.2776C17.496 4.10292 17.2666 4.01562 17.0372 4.01562Z" fill="#C4C4C4"/>
<path d="M20.133 1.81524C18.9624 0.644638 17.4061 0 15.7506 0C14.0951 0 12.5387 0.644638 11.3682 1.81524C10.3662 2.81719 9.75234 4.08944 9.59292 5.49442C9.44463 6.80111 9.71902 8.13478 10.3667 9.26963L0.0518188 19.5845L2.36376 21.8965L3.57171 20.6885L4.88329 22L7.04437 19.839L5.73278 18.5274L7.35138 16.9088L8.66297 18.2204L10.824 16.0593L9.51245 14.7477L12.6786 11.5816C13.8135 12.2292 15.147 12.5035 16.4539 12.3554C17.8588 12.1959 19.131 11.582 20.133 10.5801C21.3036 9.40949 21.9483 7.85312 21.9483 6.19769C21.9482 4.54221 21.3036 2.9858 20.133 1.81524ZM18.5835 6.45725C18.1572 6.88355 17.5972 7.09673 17.0372 7.09673C16.4772 7.09673 15.9173 6.88355 15.4909 6.45725C14.6383 5.60463 14.6383 4.21735 15.4909 3.36473C16.3436 2.5121 17.7308 2.5121 18.5835 3.36473C19.436 4.21735 19.436 5.60467 18.5835 6.45725Z" fill="#C4C4C4"/>
</g>
<defs>
<clipPath id="clip0">
<rect width="22" height="22" fill="white"/>
</clipPath>
</defs>
</svg>
