<svg width="26" height="26" viewBox="0 0 26 26" fill="none" xmlns="http://www.w3.org/2000/svg">
<path d="M23.0208 4.35033H17.3333V4.07936C17.3333 3.03398 16.4829 2.18359 15.4375 2.18359H10.5625C9.51712 2.18359 8.66673 3.03398 8.66673 4.07936V4.35033H2.97923C1.33578 4.35033 0 5.68591 0 7.32936V20.8711C0 22.5145 1.33578 23.8503 2.97923 23.8503H23.0208C24.6642 23.8503 26 22.5145 26 20.8711V7.32936C26 5.68591 24.6642 4.35033 23.0208 4.35033ZM15.1677 6.51686H10.8333V4.35033H15.1667L15.1677 6.51686ZM8.125 9.76686C9.61789 9.76686 10.8333 10.9824 10.8333 12.4753C10.8333 13.968 9.61789 15.1836 8.125 15.1836C6.63211 15.1836 5.41673 13.968 5.41673 12.4753C5.41673 10.9824 6.63211 9.76686 8.125 9.76686ZM13 19.7878C13 20.2363 12.636 20.6003 12.1875 20.6003H4.0625C3.614 20.6003 3.25 20.2363 3.25 19.7878V19.2461C3.25 17.6026 4.58578 16.2669 6.22923 16.2669H10.0208C11.6642 16.2669 13 17.6026 13 19.2461V19.7878ZM21.9375 20.6003H15.9792C15.5307 20.6003 15.1667 20.2363 15.1667 19.7878C15.1667 19.3393 15.5307 18.9753 15.9792 18.9753H21.9375C22.386 18.9753 22.75 19.3393 22.75 19.7878C22.75 20.2363 22.386 20.6003 21.9375 20.6003ZM21.9375 16.2669H15.9792C15.5307 16.2669 15.1667 15.9029 15.1667 15.4544C15.1667 15.0059 15.5307 14.6419 15.9792 14.6419H21.9375C22.386 14.6419 22.75 15.0059 22.75 15.4544C22.75 15.9029 22.386 16.2669 21.9375 16.2669ZM21.9375 11.9336H15.9792C15.5307 11.9336 15.1667 11.5696 15.1667 11.1211C15.1667 10.6726 15.5307 10.3086 15.9792 10.3086H21.9375C22.386 10.3086 22.75 10.6726 22.75 11.1211C22.75 11.5696 22.386 11.9336 21.9375 11.9336Z" fill="#C4C4C4"/>
</svg>
