<svg width="25" height="19" viewBox="0 0 25 19" fill="none" xmlns="http://www.w3.org/2000/svg">
<path d="M14.75 19H12.125L4.125 7V19H0.925V1.5H4.075L11.55 12.8V1.5H14.75V19ZM20.7258 6.95C20.2258 6.95 19.7674 6.86667 19.3508 6.7C18.9508 6.51667 18.6091 6.275 18.3258 5.975C18.0424 5.675 17.8174 5.31667 17.6508 4.9C17.5008 4.48333 17.4258 4.03333 17.4258 3.55C17.4258 3.06667 17.5008 2.61667 17.6508 2.2C17.8174 1.78333 18.0424 1.425 18.3258 1.125C18.6091 0.808333 18.9508 0.566666 19.3508 0.4C19.7674 0.216666 20.2258 0.124999 20.7258 0.124999C21.2258 0.124999 21.6841 0.216666 22.1008 0.4C22.5174 0.566666 22.8674 0.808333 23.1508 1.125C23.4341 1.425 23.6508 1.78333 23.8008 2.2C23.9674 2.61667 24.0508 3.06667 24.0508 3.55C24.0508 4.03333 23.9674 4.48333 23.8008 4.9C23.6508 5.31667 23.4341 5.675 23.1508 5.975C22.8674 6.275 22.5174 6.51667 22.1008 6.7C21.6841 6.86667 21.2258 6.95 20.7258 6.95ZM20.7258 1.4C20.2258 1.4 19.8341 1.6 19.5508 2C19.2674 2.38333 19.1258 2.9 19.1258 3.55C19.1258 4.2 19.2674 4.71667 19.5508 5.1C19.8341 5.48333 20.2258 5.675 20.7258 5.675C21.2424 5.675 21.6424 5.48333 21.9258 5.1C22.2091 4.71667 22.3508 4.2 22.3508 3.55C22.3508 2.9 22.2091 2.38333 21.9258 2C21.6424 1.6 21.2424 1.4 20.7258 1.4Z" fill="#C4C4C4"/>
</svg>
